<?xml version="1.0" standalone="no"?>
 <!DOCTYPE svg PUBLIC "-//W3C//DTD SVG 1.1//EN" 
 "http://www.w3.org/Graphics/SVG/1.1/DTD/svg11.dtd"> 
<svg
  xmlns:svg="http://www.w3.org/2000/svg"
  xmlns="http://www.w3.org/2000/svg"
  xmlns:xlink="http://www.w3.org/1999/xlink"
  xmlns:inkscape="http://www.inkscape.org/namespaces/inkscape"
  version="1.1"
  width="12.700000mm" height="12.700000mm" viewBox="0.000000 0.000000 12.700000 12.700000">
<title>SVG Image created as bga.svg date 2026-04-30T01:11:40 </title>
  <desc>Image generated by PCBNEW </desc>
<g style="fill:#000000; fill-opacity:1.000000;stroke:#000000; stroke-opacity:1.000000;
stroke-linecap:round; stroke-linejoin:round;"
 transform="translate(0 0) scale(1 1)">
</g>
<g style="fill:#C83434; fill-opacity:1.000000; stroke:none;">
<circle cx="1.768800" cy="1.768800" r="0.212500" /> 
<circle cx="2.406300" cy="1.768800" r="0.212500" /> 
<circle cx="3.043700" cy="1.768800" r="0.212500" /> 
<circle cx="3.681200" cy="1.768800" r="0.212500" /> 
<circle cx="4.318700" cy="1.768800" r="0.212500" /> 
<circle cx="4.956200" cy="1.768800" r="0.212500" /> 
<circle cx="5.593700" cy="1.768800" r="0.212500" /> 
<circle cx="6.231200" cy="1.768800" r="0.212500" /> 
<circle cx="6.868700" cy="1.768800" r="0.212500" /> 
<circle cx="7.506200" cy="1.768800" r="0.212500" /> 
<circle cx="8.143800" cy="1.768800" r="0.212500" /> 
<circle cx="8.781200" cy="1.768800" r="0.212500" /> 
<circle cx="9.418700" cy="1.768800" r="0.212500" /> 
<circle cx="10.056200" cy="1.768800" r="0.212500" /> 
<circle cx="10.693700" cy="1.768800" r="0.212500" /> 
<circle cx="11.331200" cy="1.768800" r="0.212500" /> 
<circle cx="1.768800" cy="2.406300" r="0.212500" /> 
<circle cx="2.406300" cy="2.406300" r="0.212500" /> 
<circle cx="3.043700" cy="2.406300" r="0.212500" /> 
<circle cx="3.681200" cy="2.406300" r="0.212500" /> 
<circle cx="4.318700" cy="2.406300" r="0.212500" /> 
<circle cx="4.956200" cy="2.406300" r="0.212500" /> 
<circle cx="5.593700" cy="2.406300" r="0.212500" /> 
<circle cx="6.231200" cy="2.406300" r="0.212500" /> 
<circle cx="6.868700" cy="2.406300" r="0.212500" /> 
<circle cx="7.506200" cy="2.406300" r="0.212500" /> 
<circle cx="8.143800" cy="2.406300" r="0.212500" /> 
<circle cx="8.781200" cy="2.406300" r="0.212500" /> 
<circle cx="9.418700" cy="2.406300" r="0.212500" /> 
<circle cx="10.056200" cy="2.406300" r="0.212500" /> 
<circle cx="10.693700" cy="2.406300" r="0.212500" /> 
<circle cx="11.331200" cy="2.406300" r="0.212500" /> 
<circle cx="1.768800" cy="3.043700" r="0.212500" /> 
<circle cx="2.406300" cy="3.043700" r="0.212500" /> 
<circle cx="3.043700" cy="3.043700" r="0.212500" /> 
<circle cx="3.681200" cy="3.043700" r="0.212500" /> 
<circle cx="4.318700" cy="3.043700" r="0.212500" /> 
<circle cx="4.956200" cy="3.043700" r="0.212500" /> 
<circle cx="5.593700" cy="3.043700" r="0.212500" /> 
<circle cx="6.231200" cy="3.043700" r="0.212500" /> 
<circle cx="6.868700" cy="3.043700" r="0.212500" /> 
<circle cx="7.506200" cy="3.043700" r="0.212500" /> 
<circle cx="8.143800" cy="3.043700" r="0.212500" /> 
<circle cx="8.781200" cy="3.043700" r="0.212500" /> 
<circle cx="9.418700" cy="3.043700" r="0.212500" /> 
<circle cx="10.056200" cy="3.043700" r="0.212500" /> 
<circle cx="10.693700" cy="3.043700" r="0.212500" /> 
<circle cx="11.331200" cy="3.043700" r="0.212500" /> 
<circle cx="1.768800" cy="3.681200" r="0.212500" /> 
<circle cx="2.406300" cy="3.681200" r="0.212500" /> 
<circle cx="3.043700" cy="3.681200" r="0.212500" /> 
<circle cx="3.681200" cy="3.681200" r="0.212500" /> 
<circle cx="4.318700" cy="3.681200" r="0.212500" /> 
<circle cx="4.956200" cy="3.681200" r="0.212500" /> 
<circle cx="5.593700" cy="3.681200" r="0.212500" /> 
<circle cx="6.231200" cy="3.681200" r="0.212500" /> 
<circle cx="6.868700" cy="3.681200" r="0.212500" /> 
<circle cx="7.506200" cy="3.681200" r="0.212500" /> 
<circle cx="8.143800" cy="3.681200" r="0.212500" /> 
<circle cx="8.781200" cy="3.681200" r="0.212500" /> 
<circle cx="9.418700" cy="3.681200" r="0.212500" /> 
<circle cx="10.056200" cy="3.681200" r="0.212500" /> 
<circle cx="10.693700" cy="3.681200" r="0.212500" /> 
<circle cx="11.331200" cy="3.681200" r="0.212500" /> 
<circle cx="1.768800" cy="4.318700" r="0.212500" /> 
<circle cx="2.406300" cy="4.318700" r="0.212500" /> 
<circle cx="3.043700" cy="4.318700" r="0.212500" /> 
<circle cx="3.681200" cy="4.318700" r="0.212500" /> 
<circle cx="4.318700" cy="4.318700" r="0.212500" /> 
<circle cx="4.956200" cy="4.318700" r="0.212500" /> 
<circle cx="5.593700" cy="4.318700" r="0.212500" /> 
<circle cx="6.231200" cy="4.318700" r="0.212500" /> 
<circle cx="6.868700" cy="4.318700" r="0.212500" /> 
<circle cx="7.506200" cy="4.318700" r="0.212500" /> 
<circle cx="8.143800" cy="4.318700" r="0.212500" /> 
<circle cx="8.781200" cy="4.318700" r="0.212500" /> 
<circle cx="9.418700" cy="4.318700" r="0.212500" /> 
<circle cx="10.056200" cy="4.318700" r="0.212500" /> 
<circle cx="10.693700" cy="4.318700" r="0.212500" /> 
<circle cx="11.331200" cy="4.318700" r="0.212500" /> 
<circle cx="1.768800" cy="4.956200" r="0.212500" /> 
<circle cx="2.406300" cy="4.956200" r="0.212500" /> 
<circle cx="3.043700" cy="4.956200" r="0.212500" /> 
<circle cx="3.681200" cy="4.956200" r="0.212500" /> 
<circle cx="4.318700" cy="4.956200" r="0.212500" /> 
<circle cx="4.956200" cy="4.956200" r="0.212500" /> 
<circle cx="5.593700" cy="4.956200" r="0.212500" /> 
<circle cx="6.231200" cy="4.956200" r="0.212500" /> 
<circle cx="6.868700" cy="4.956200" r="0.212500" /> 
<circle cx="7.506200" cy="4.956200" r="0.212500" /> 
<circle cx="8.143800" cy="4.956200" r="0.212500" /> 
<circle cx="8.781200" cy="4.956200" r="0.212500" /> 
<circle cx="9.418700" cy="4.956200" r="0.212500" /> 
<circle cx="10.056200" cy="4.956200" r="0.212500" /> 
<circle cx="10.693700" cy="4.956200" r="0.212500" /> 
<circle cx="11.331200" cy="4.956200" r="0.212500" /> 
<circle cx="1.768800" cy="5.593700" r="0.212500" /> 
<circle cx="2.406300" cy="5.593700" r="0.212500" /> 
<circle cx="3.043700" cy="5.593700" r="0.212500" /> 
<circle cx="3.681200" cy="5.593700" r="0.212500" /> 
<circle cx="4.318700" cy="5.593700" r="0.212500" /> 
<circle cx="4.956200" cy="5.593700" r="0.212500" /> 
<circle cx="5.593700" cy="5.593700" r="0.212500" /> 
<circle cx="6.231200" cy="5.593700" r="0.212500" /> 
<circle cx="6.868700" cy="5.593700" r="0.212500" /> 
<circle cx="7.506200" cy="5.593700" r="0.212500" /> 
<circle cx="8.143800" cy="5.593700" r="0.212500" /> 
<circle cx="8.781200" cy="5.593700" r="0.212500" /> 
<circle cx="9.418700" cy="5.593700" r="0.212500" /> 
<circle cx="10.056200" cy="5.593700" r="0.212500" /> 
<circle cx="10.693700" cy="5.593700" r="0.212500" /> 
<circle cx="11.331200" cy="5.593700" r="0.212500" /> 
<circle cx="1.768800" cy="6.231200" r="0.212500" /> 
<circle cx="2.406300" cy="6.231200" r="0.212500" /> 
<circle cx="3.043700" cy="6.231200" r="0.212500" /> 
<circle cx="3.681200" cy="6.231200" r="0.212500" /> 
<circle cx="4.318700" cy="6.231200" r="0.212500" /> 
<circle cx="4.956200" cy="6.231200" r="0.212500" /> 
<circle cx="5.593700" cy="6.231200" r="0.212500" /> 
<circle cx="6.231200" cy="6.231200" r="0.212500" /> 
<circle cx="6.868700" cy="6.231200" r="0.212500" /> 
<circle cx="7.506200" cy="6.231200" r="0.212500" /> 
<circle cx="8.143800" cy="6.231200" r="0.212500" /> 
<circle cx="8.781200" cy="6.231200" r="0.212500" /> 
<circle cx="9.418700" cy="6.231200" r="0.212500" /> 
<circle cx="10.056200" cy="6.231200" r="0.212500" /> 
<circle cx="10.693700" cy="6.231200" r="0.212500" /> 
<circle cx="11.331200" cy="6.231200" r="0.212500" /> 
<circle cx="1.768800" cy="6.868700" r="0.212500" /> 
<circle cx="2.406300" cy="6.868700" r="0.212500" /> 
<circle cx="3.043700" cy="6.868700" r="0.212500" /> 
<circle cx="3.681200" cy="6.868700" r="0.212500" /> 
<circle cx="4.318700" cy="6.868700" r="0.212500" /> 
<circle cx="4.956200" cy="6.868700" r="0.212500" /> 
<circle cx="5.593700" cy="6.868700" r="0.212500" /> 
<circle cx="6.231200" cy="6.868700" r="0.212500" /> 
<circle cx="6.868700" cy="6.868700" r="0.212500" /> 
<circle cx="7.506200" cy="6.868700" r="0.212500" /> 
<circle cx="8.143800" cy="6.868700" r="0.212500" /> 
<circle cx="8.781200" cy="6.868700" r="0.212500" /> 
<circle cx="9.418700" cy="6.868700" r="0.212500" /> 
<circle cx="10.056200" cy="6.868700" r="0.212500" /> 
<circle cx="10.693700" cy="6.868700" r="0.212500" /> 
<circle cx="11.331200" cy="6.868700" r="0.212500" /> 
<circle cx="1.768800" cy="7.506200" r="0.212500" /> 
<circle cx="2.406300" cy="7.506200" r="0.212500" /> 
<circle cx="3.043700" cy="7.506200" r="0.212500" /> 
<circle cx="3.681200" cy="7.506200" r="0.212500" /> 
<circle cx="4.318700" cy="7.506200" r="0.212500" /> 
<circle cx="4.956200" cy="7.506200" r="0.212500" /> 
<circle cx="5.593700" cy="7.506200" r="0.212500" /> 
<circle cx="6.231200" cy="7.506200" r="0.212500" /> 
<circle cx="6.868700" cy="7.506200" r="0.212500" /> 
<circle cx="7.506200" cy="7.506200" r="0.212500" /> 
<circle cx="8.143800" cy="7.506200" r="0.212500" /> 
<circle cx="8.781200" cy="7.506200" r="0.212500" /> 
<circle cx="9.418700" cy="7.506200" r="0.212500" /> 
<circle cx="10.056200" cy="7.506200" r="0.212500" /> 
<circle cx="10.693700" cy="7.506200" r="0.212500" /> 
<circle cx="11.331200" cy="7.506200" r="0.212500" /> 
<circle cx="1.768800" cy="8.143800" r="0.212500" /> 
<circle cx="2.406300" cy="8.143800" r="0.212500" /> 
<circle cx="3.043700" cy="8.143800" r="0.212500" /> 
<circle cx="3.681200" cy="8.143800" r="0.212500" /> 
<circle cx="4.318700" cy="8.143800" r="0.212500" /> 
<circle cx="4.956200" cy="8.143800" r="0.212500" /> 
<circle cx="5.593700" cy="8.143800" r="0.212500" /> 
<circle cx="6.231200" cy="8.143800" r="0.212500" /> 
<circle cx="6.868700" cy="8.143800" r="0.212500" /> 
<circle cx="7.506200" cy="8.143800" r="0.212500" /> 
<circle cx="8.143800" cy="8.143800" r="0.212500" /> 
<circle cx="8.781200" cy="8.143800" r="0.212500" /> 
<circle cx="9.418700" cy="8.143800" r="0.212500" /> 
<circle cx="10.056200" cy="8.143800" r="0.212500" /> 
<circle cx="10.693700" cy="8.143800" r="0.212500" /> 
<circle cx="11.331200" cy="8.143800" r="0.212500" /> 
<circle cx="1.768800" cy="8.781200" r="0.212500" /> 
<circle cx="2.406300" cy="8.781200" r="0.212500" /> 
<circle cx="3.043700" cy="8.781200" r="0.212500" /> 
<circle cx="3.681200" cy="8.781200" r="0.212500" /> 
<circle cx="4.318700" cy="8.781200" r="0.212500" /> 
<circle cx="4.956200" cy="8.781200" r="0.212500" /> 
<circle cx="5.593700" cy="8.781200" r="0.212500" /> 
<circle cx="6.231200" cy="8.781200" r="0.212500" /> 
<circle cx="6.868700" cy="8.781200" r="0.212500" /> 
<circle cx="7.506200" cy="8.781200" r="0.212500" /> 
<circle cx="8.143800" cy="8.781200" r="0.212500" /> 
<circle cx="8.781200" cy="8.781200" r="0.212500" /> 
<circle cx="9.418700" cy="8.781200" r="0.212500" /> 
<circle cx="10.056200" cy="8.781200" r="0.212500" /> 
<circle cx="10.693700" cy="8.781200" r="0.212500" /> 
<circle cx="11.331200" cy="8.781200" r="0.212500" /> 
<circle cx="1.768800" cy="9.418700" r="0.212500" /> 
<circle cx="2.406300" cy="9.418700" r="0.212500" /> 
<circle cx="3.043700" cy="9.418700" r="0.212500" /> 
<circle cx="3.681200" cy="9.418700" r="0.212500" /> 
<circle cx="4.318700" cy="9.418700" r="0.212500" /> 
<circle cx="4.956200" cy="9.418700" r="0.212500" /> 
<circle cx="5.593700" cy="9.418700" r="0.212500" /> 
<circle cx="6.231200" cy="9.418700" r="0.212500" /> 
<circle cx="6.868700" cy="9.418700" r="0.212500" /> 
<circle cx="7.506200" cy="9.418700" r="0.212500" /> 
<circle cx="8.143800" cy="9.418700" r="0.212500" /> 
<circle cx="8.781200" cy="9.418700" r="0.212500" /> 
<circle cx="9.418700" cy="9.418700" r="0.212500" /> 
<circle cx="10.056200" cy="9.418700" r="0.212500" /> 
<circle cx="10.693700" cy="9.418700" r="0.212500" /> 
<circle cx="11.331200" cy="9.418700" r="0.212500" /> 
<circle cx="1.768800" cy="10.056200" r="0.212500" /> 
<circle cx="2.406300" cy="10.056200" r="0.212500" /> 
<circle cx="3.043700" cy="10.056200" r="0.212500" /> 
<circle cx="3.681200" cy="10.056200" r="0.212500" /> 
<circle cx="4.318700" cy="10.056200" r="0.212500" /> 
<circle cx="4.956200" cy="10.056200" r="0.212500" /> 
<circle cx="5.593700" cy="10.056200" r="0.212500" /> 
<circle cx="6.231200" cy="10.056200" r="0.212500" /> 
<circle cx="6.868700" cy="10.056200" r="0.212500" /> 
<circle cx="7.506200" cy="10.056200" r="0.212500" /> 
<circle cx="8.143800" cy="10.056200" r="0.212500" /> 
<circle cx="8.781200" cy="10.056200" r="0.212500" /> 
<circle cx="9.418700" cy="10.056200" r="0.212500" /> 
<circle cx="10.056200" cy="10.056200" r="0.212500" /> 
<circle cx="10.693700" cy="10.056200" r="0.212500" /> 
<circle cx="11.331200" cy="10.056200" r="0.212500" /> 
<circle cx="1.768800" cy="10.693700" r="0.212500" /> 
<circle cx="2.406300" cy="10.693700" r="0.212500" /> 
<circle cx="3.043700" cy="10.693700" r="0.212500" /> 
<circle cx="3.681200" cy="10.693700" r="0.212500" /> 
<circle cx="4.318700" cy="10.693700" r="0.212500" /> 
<circle cx="4.956200" cy="10.693700" r="0.212500" /> 
<circle cx="5.593700" cy="10.693700" r="0.212500" /> 
<circle cx="6.231200" cy="10.693700" r="0.212500" /> 
<circle cx="6.868700" cy="10.693700" r="0.212500" /> 
<circle cx="7.506200" cy="10.693700" r="0.212500" /> 
<circle cx="8.143800" cy="10.693700" r="0.212500" /> 
<circle cx="8.781200" cy="10.693700" r="0.212500" /> 
<circle cx="9.418700" cy="10.693700" r="0.212500" /> 
<circle cx="10.056200" cy="10.693700" r="0.212500" /> 
<circle cx="10.693700" cy="10.693700" r="0.212500" /> 
<circle cx="11.331200" cy="10.693700" r="0.212500" /> 
<circle cx="1.768800" cy="11.331200" r="0.212500" /> 
<circle cx="2.406300" cy="11.331200" r="0.212500" /> 
<circle cx="3.043700" cy="11.331200" r="0.212500" /> 
<circle cx="3.681200" cy="11.331200" r="0.212500" /> 
<circle cx="4.318700" cy="11.331200" r="0.212500" /> 
<circle cx="4.956200" cy="11.331200" r="0.212500" /> 
<circle cx="5.593700" cy="11.331200" r="0.212500" /> 
<circle cx="6.231200" cy="11.331200" r="0.212500" /> 
<circle cx="6.868700" cy="11.331200" r="0.212500" /> 
<circle cx="7.506200" cy="11.331200" r="0.212500" /> 
<circle cx="8.143800" cy="11.331200" r="0.212500" /> 
<circle cx="8.781200" cy="11.331200" r="0.212500" /> 
<circle cx="9.418700" cy="11.331200" r="0.212500" /> 
<circle cx="10.056200" cy="11.331200" r="0.212500" /> 
<circle cx="10.693700" cy="11.331200" r="0.212500" /> 
<circle cx="11.331200" cy="11.331200" r="0.212500" /> 
</g>
<g style="fill:#D864FF; fill-opacity:0.400000; stroke:none;">
<circle cx="1.768800" cy="1.768800" r="0.212500" /> 
<circle cx="2.406300" cy="1.768800" r="0.212500" /> 
<circle cx="3.043700" cy="1.768800" r="0.212500" /> 
<circle cx="3.681200" cy="1.768800" r="0.212500" /> 
<circle cx="4.318700" cy="1.768800" r="0.212500" /> 
<circle cx="4.956200" cy="1.768800" r="0.212500" /> 
<circle cx="5.593700" cy="1.768800" r="0.212500" /> 
<circle cx="6.231200" cy="1.768800" r="0.212500" /> 
<circle cx="6.868700" cy="1.768800" r="0.212500" /> 
<circle cx="7.506200" cy="1.768800" r="0.212500" /> 
<circle cx="8.143800" cy="1.768800" r="0.212500" /> 
<circle cx="8.781200" cy="1.768800" r="0.212500" /> 
<circle cx="9.418700" cy="1.768800" r="0.212500" /> 
<circle cx="10.056200" cy="1.768800" r="0.212500" /> 
<circle cx="10.693700" cy="1.768800" r="0.212500" /> 
<circle cx="11.331200" cy="1.768800" r="0.212500" /> 
<circle cx="1.768800" cy="2.406300" r="0.212500" /> 
<circle cx="2.406300" cy="2.406300" r="0.212500" /> 
<circle cx="3.043700" cy="2.406300" r="0.212500" /> 
<circle cx="3.681200" cy="2.406300" r="0.212500" /> 
<circle cx="4.318700" cy="2.406300" r="0.212500" /> 
<circle cx="4.956200" cy="2.406300" r="0.212500" /> 
<circle cx="5.593700" cy="2.406300" r="0.212500" /> 
<circle cx="6.231200" cy="2.406300" r="0.212500" /> 
<circle cx="6.868700" cy="2.406300" r="0.212500" /> 
<circle cx="7.506200" cy="2.406300" r="0.212500" /> 
<circle cx="8.143800" cy="2.406300" r="0.212500" /> 
<circle cx="8.781200" cy="2.406300" r="0.212500" /> 
<circle cx="9.418700" cy="2.406300" r="0.212500" /> 
<circle cx="10.056200" cy="2.406300" r="0.212500" /> 
<circle cx="10.693700" cy="2.406300" r="0.212500" /> 
<circle cx="11.331200" cy="2.406300" r="0.212500" /> 
<circle cx="1.768800" cy="3.043700" r="0.212500" /> 
<circle cx="2.406300" cy="3.043700" r="0.212500" /> 
<circle cx="3.043700" cy="3.043700" r="0.212500" /> 
<circle cx="3.681200" cy="3.043700" r="0.212500" /> 
<circle cx="4.318700" cy="3.043700" r="0.212500" /> 
<circle cx="4.956200" cy="3.043700" r="0.212500" /> 
<circle cx="5.593700" cy="3.043700" r="0.212500" /> 
<circle cx="6.231200" cy="3.043700" r="0.212500" /> 
<circle cx="6.868700" cy="3.043700" r="0.212500" /> 
<circle cx="7.506200" cy="3.043700" r="0.212500" /> 
<circle cx="8.143800" cy="3.043700" r="0.212500" /> 
<circle cx="8.781200" cy="3.043700" r="0.212500" /> 
<circle cx="9.418700" cy="3.043700" r="0.212500" /> 
<circle cx="10.056200" cy="3.043700" r="0.212500" /> 
<circle cx="10.693700" cy="3.043700" r="0.212500" /> 
<circle cx="11.331200" cy="3.043700" r="0.212500" /> 
<circle cx="1.768800" cy="3.681200" r="0.212500" /> 
<circle cx="2.406300" cy="3.681200" r="0.212500" /> 
<circle cx="3.043700" cy="3.681200" r="0.212500" /> 
<circle cx="3.681200" cy="3.681200" r="0.212500" /> 
<circle cx="4.318700" cy="3.681200" r="0.212500" /> 
<circle cx="4.956200" cy="3.681200" r="0.212500" /> 
<circle cx="5.593700" cy="3.681200" r="0.212500" /> 
<circle cx="6.231200" cy="3.681200" r="0.212500" /> 
<circle cx="6.868700" cy="3.681200" r="0.212500" /> 
<circle cx="7.506200" cy="3.681200" r="0.212500" /> 
<circle cx="8.143800" cy="3.681200" r="0.212500" /> 
<circle cx="8.781200" cy="3.681200" r="0.212500" /> 
<circle cx="9.418700" cy="3.681200" r="0.212500" /> 
<circle cx="10.056200" cy="3.681200" r="0.212500" /> 
<circle cx="10.693700" cy="3.681200" r="0.212500" /> 
<circle cx="11.331200" cy="3.681200" r="0.212500" /> 
<circle cx="1.768800" cy="4.318700" r="0.212500" /> 
<circle cx="2.406300" cy="4.318700" r="0.212500" /> 
<circle cx="3.043700" cy="4.318700" r="0.212500" /> 
<circle cx="3.681200" cy="4.318700" r="0.212500" /> 
<circle cx="4.318700" cy="4.318700" r="0.212500" /> 
<circle cx="4.956200" cy="4.318700" r="0.212500" /> 
<circle cx="5.593700" cy="4.318700" r="0.212500" /> 
<circle cx="6.231200" cy="4.318700" r="0.212500" /> 
<circle cx="6.868700" cy="4.318700" r="0.212500" /> 
<circle cx="7.506200" cy="4.318700" r="0.212500" /> 
<circle cx="8.143800" cy="4.318700" r="0.212500" /> 
<circle cx="8.781200" cy="4.318700" r="0.212500" /> 
<circle cx="9.418700" cy="4.318700" r="0.212500" /> 
<circle cx="10.056200" cy="4.318700" r="0.212500" /> 
<circle cx="10.693700" cy="4.318700" r="0.212500" /> 
<circle cx="11.331200" cy="4.318700" r="0.212500" /> 
<circle cx="1.768800" cy="4.956200" r="0.212500" /> 
<circle cx="2.406300" cy="4.956200" r="0.212500" /> 
<circle cx="3.043700" cy="4.956200" r="0.212500" /> 
<circle cx="3.681200" cy="4.956200" r="0.212500" /> 
<circle cx="4.318700" cy="4.956200" r="0.212500" /> 
<circle cx="4.956200" cy="4.956200" r="0.212500" /> 
<circle cx="5.593700" cy="4.956200" r="0.212500" /> 
<circle cx="6.231200" cy="4.956200" r="0.212500" /> 
<circle cx="6.868700" cy="4.956200" r="0.212500" /> 
<circle cx="7.506200" cy="4.956200" r="0.212500" /> 
<circle cx="8.143800" cy="4.956200" r="0.212500" /> 
<circle cx="8.781200" cy="4.956200" r="0.212500" /> 
<circle cx="9.418700" cy="4.956200" r="0.212500" /> 
<circle cx="10.056200" cy="4.956200" r="0.212500" /> 
<circle cx="10.693700" cy="4.956200" r="0.212500" /> 
<circle cx="11.331200" cy="4.956200" r="0.212500" /> 
<circle cx="1.768800" cy="5.593700" r="0.212500" /> 
<circle cx="2.406300" cy="5.593700" r="0.212500" /> 
<circle cx="3.043700" cy="5.593700" r="0.212500" /> 
<circle cx="3.681200" cy="5.593700" r="0.212500" /> 
<circle cx="4.318700" cy="5.593700" r="0.212500" /> 
<circle cx="4.956200" cy="5.593700" r="0.212500" /> 
<circle cx="5.593700" cy="5.593700" r="0.212500" /> 
<circle cx="6.231200" cy="5.593700" r="0.212500" /> 
<circle cx="6.868700" cy="5.593700" r="0.212500" /> 
<circle cx="7.506200" cy="5.593700" r="0.212500" /> 
<circle cx="8.143800" cy="5.593700" r="0.212500" /> 
<circle cx="8.781200" cy="5.593700" r="0.212500" /> 
<circle cx="9.418700" cy="5.593700" r="0.212500" /> 
<circle cx="10.056200" cy="5.593700" r="0.212500" /> 
<circle cx="10.693700" cy="5.593700" r="0.212500" /> 
<circle cx="11.331200" cy="5.593700" r="0.212500" /> 
<circle cx="1.768800" cy="6.231200" r="0.212500" /> 
<circle cx="2.406300" cy="6.231200" r="0.212500" /> 
<circle cx="3.043700" cy="6.231200" r="0.212500" /> 
<circle cx="3.681200" cy="6.231200" r="0.212500" /> 
<circle cx="4.318700" cy="6.231200" r="0.212500" /> 
<circle cx="4.956200" cy="6.231200" r="0.212500" /> 
<circle cx="5.593700" cy="6.231200" r="0.212500" /> 
<circle cx="6.231200" cy="6.231200" r="0.212500" /> 
<circle cx="6.868700" cy="6.231200" r="0.212500" /> 
<circle cx="7.506200" cy="6.231200" r="0.212500" /> 
<circle cx="8.143800" cy="6.231200" r="0.212500" /> 
<circle cx="8.781200" cy="6.231200" r="0.212500" /> 
<circle cx="9.418700" cy="6.231200" r="0.212500" /> 
<circle cx="10.056200" cy="6.231200" r="0.212500" /> 
<circle cx="10.693700" cy="6.231200" r="0.212500" /> 
<circle cx="11.331200" cy="6.231200" r="0.212500" /> 
<circle cx="1.768800" cy="6.868700" r="0.212500" /> 
<circle cx="2.406300" cy="6.868700" r="0.212500" /> 
<circle cx="3.043700" cy="6.868700" r="0.212500" /> 
<circle cx="3.681200" cy="6.868700" r="0.212500" /> 
<circle cx="4.318700" cy="6.868700" r="0.212500" /> 
<circle cx="4.956200" cy="6.868700" r="0.212500" /> 
<circle cx="5.593700" cy="6.868700" r="0.212500" /> 
<circle cx="6.231200" cy="6.868700" r="0.212500" /> 
<circle cx="6.868700" cy="6.868700" r="0.212500" /> 
<circle cx="7.506200" cy="6.868700" r="0.212500" /> 
<circle cx="8.143800" cy="6.868700" r="0.212500" /> 
<circle cx="8.781200" cy="6.868700" r="0.212500" /> 
<circle cx="9.418700" cy="6.868700" r="0.212500" /> 
<circle cx="10.056200" cy="6.868700" r="0.212500" /> 
<circle cx="10.693700" cy="6.868700" r="0.212500" /> 
<circle cx="11.331200" cy="6.868700" r="0.212500" /> 
<circle cx="1.768800" cy="7.506200" r="0.212500" /> 
<circle cx="2.406300" cy="7.506200" r="0.212500" /> 
<circle cx="3.043700" cy="7.506200" r="0.212500" /> 
<circle cx="3.681200" cy="7.506200" r="0.212500" /> 
<circle cx="4.318700" cy="7.506200" r="0.212500" /> 
<circle cx="4.956200" cy="7.506200" r="0.212500" /> 
<circle cx="5.593700" cy="7.506200" r="0.212500" /> 
<circle cx="6.231200" cy="7.506200" r="0.212500" /> 
<circle cx="6.868700" cy="7.506200" r="0.212500" /> 
<circle cx="7.506200" cy="7.506200" r="0.212500" /> 
<circle cx="8.143800" cy="7.506200" r="0.212500" /> 
<circle cx="8.781200" cy="7.506200" r="0.212500" /> 
<circle cx="9.418700" cy="7.506200" r="0.212500" /> 
<circle cx="10.056200" cy="7.506200" r="0.212500" /> 
<circle cx="10.693700" cy="7.506200" r="0.212500" /> 
<circle cx="11.331200" cy="7.506200" r="0.212500" /> 
<circle cx="1.768800" cy="8.143800" r="0.212500" /> 
<circle cx="2.406300" cy="8.143800" r="0.212500" /> 
<circle cx="3.043700" cy="8.143800" r="0.212500" /> 
<circle cx="3.681200" cy="8.143800" r="0.212500" /> 
<circle cx="4.318700" cy="8.143800" r="0.212500" /> 
<circle cx="4.956200" cy="8.143800" r="0.212500" /> 
<circle cx="5.593700" cy="8.143800" r="0.212500" /> 
<circle cx="6.231200" cy="8.143800" r="0.212500" /> 
<circle cx="6.868700" cy="8.143800" r="0.212500" /> 
<circle cx="7.506200" cy="8.143800" r="0.212500" /> 
<circle cx="8.143800" cy="8.143800" r="0.212500" /> 
<circle cx="8.781200" cy="8.143800" r="0.212500" /> 
<circle cx="9.418700" cy="8.143800" r="0.212500" /> 
<circle cx="10.056200" cy="8.143800" r="0.212500" /> 
<circle cx="10.693700" cy="8.143800" r="0.212500" /> 
<circle cx="11.331200" cy="8.143800" r="0.212500" /> 
<circle cx="1.768800" cy="8.781200" r="0.212500" /> 
<circle cx="2.406300" cy="8.781200" r="0.212500" /> 
<circle cx="3.043700" cy="8.781200" r="0.212500" /> 
<circle cx="3.681200" cy="8.781200" r="0.212500" /> 
<circle cx="4.318700" cy="8.781200" r="0.212500" /> 
<circle cx="4.956200" cy="8.781200" r="0.212500" /> 
<circle cx="5.593700" cy="8.781200" r="0.212500" /> 
<circle cx="6.231200" cy="8.781200" r="0.212500" /> 
<circle cx="6.868700" cy="8.781200" r="0.212500" /> 
<circle cx="7.506200" cy="8.781200" r="0.212500" /> 
<circle cx="8.143800" cy="8.781200" r="0.212500" /> 
<circle cx="8.781200" cy="8.781200" r="0.212500" /> 
<circle cx="9.418700" cy="8.781200" r="0.212500" /> 
<circle cx="10.056200" cy="8.781200" r="0.212500" /> 
<circle cx="10.693700" cy="8.781200" r="0.212500" /> 
<circle cx="11.331200" cy="8.781200" r="0.212500" /> 
<circle cx="1.768800" cy="9.418700" r="0.212500" /> 
<circle cx="2.406300" cy="9.418700" r="0.212500" /> 
<circle cx="3.043700" cy="9.418700" r="0.212500" /> 
<circle cx="3.681200" cy="9.418700" r="0.212500" /> 
<circle cx="4.318700" cy="9.418700" r="0.212500" /> 
<circle cx="4.956200" cy="9.418700" r="0.212500" /> 
<circle cx="5.593700" cy="9.418700" r="0.212500" /> 
<circle cx="6.231200" cy="9.418700" r="0.212500" /> 
<circle cx="6.868700" cy="9.418700" r="0.212500" /> 
<circle cx="7.506200" cy="9.418700" r="0.212500" /> 
<circle cx="8.143800" cy="9.418700" r="0.212500" /> 
<circle cx="8.781200" cy="9.418700" r="0.212500" /> 
<circle cx="9.418700" cy="9.418700" r="0.212500" /> 
<circle cx="10.056200" cy="9.418700" r="0.212500" /> 
<circle cx="10.693700" cy="9.418700" r="0.212500" /> 
<circle cx="11.331200" cy="9.418700" r="0.212500" /> 
<circle cx="1.768800" cy="10.056200" r="0.212500" /> 
<circle cx="2.406300" cy="10.056200" r="0.212500" /> 
<circle cx="3.043700" cy="10.056200" r="0.212500" /> 
<circle cx="3.681200" cy="10.056200" r="0.212500" /> 
<circle cx="4.318700" cy="10.056200" r="0.212500" /> 
<circle cx="4.956200" cy="10.056200" r="0.212500" /> 
<circle cx="5.593700" cy="10.056200" r="0.212500" /> 
<circle cx="6.231200" cy="10.056200" r="0.212500" /> 
<circle cx="6.868700" cy="10.056200" r="0.212500" /> 
<circle cx="7.506200" cy="10.056200" r="0.212500" /> 
<circle cx="8.143800" cy="10.056200" r="0.212500" /> 
<circle cx="8.781200" cy="10.056200" r="0.212500" /> 
<circle cx="9.418700" cy="10.056200" r="0.212500" /> 
<circle cx="10.056200" cy="10.056200" r="0.212500" /> 
<circle cx="10.693700" cy="10.056200" r="0.212500" /> 
<circle cx="11.331200" cy="10.056200" r="0.212500" /> 
<circle cx="1.768800" cy="10.693700" r="0.212500" /> 
<circle cx="2.406300" cy="10.693700" r="0.212500" /> 
<circle cx="3.043700" cy="10.693700" r="0.212500" /> 
<circle cx="3.681200" cy="10.693700" r="0.212500" /> 
<circle cx="4.318700" cy="10.693700" r="0.212500" /> 
<circle cx="4.956200" cy="10.693700" r="0.212500" /> 
<circle cx="5.593700" cy="10.693700" r="0.212500" /> 
<circle cx="6.231200" cy="10.693700" r="0.212500" /> 
<circle cx="6.868700" cy="10.693700" r="0.212500" /> 
<circle cx="7.506200" cy="10.693700" r="0.212500" /> 
<circle cx="8.143800" cy="10.693700" r="0.212500" /> 
<circle cx="8.781200" cy="10.693700" r="0.212500" /> 
<circle cx="9.418700" cy="10.693700" r="0.212500" /> 
<circle cx="10.056200" cy="10.693700" r="0.212500" /> 
<circle cx="10.693700" cy="10.693700" r="0.212500" /> 
<circle cx="11.331200" cy="10.693700" r="0.212500" /> 
<circle cx="1.768800" cy="11.331200" r="0.212500" /> 
<circle cx="2.406300" cy="11.331200" r="0.212500" /> 
<circle cx="3.043700" cy="11.331200" r="0.212500" /> 
<circle cx="3.681200" cy="11.331200" r="0.212500" /> 
<circle cx="4.318700" cy="11.331200" r="0.212500" /> 
<circle cx="4.956200" cy="11.331200" r="0.212500" /> 
<circle cx="5.593700" cy="11.331200" r="0.212500" /> 
<circle cx="6.231200" cy="11.331200" r="0.212500" /> 
<circle cx="6.868700" cy="11.331200" r="0.212500" /> 
<circle cx="7.506200" cy="11.331200" r="0.212500" /> 
<circle cx="8.143800" cy="11.331200" r="0.212500" /> 
<circle cx="8.781200" cy="11.331200" r="0.212500" /> 
<circle cx="9.418700" cy="11.331200" r="0.212500" /> 
<circle cx="10.056200" cy="11.331200" r="0.212500" /> 
<circle cx="10.693700" cy="11.331200" r="0.212500" /> 
<circle cx="11.331200" cy="11.331200" r="0.212500" /> 
</g>
<g style="fill:#B4A09A; fill-opacity:0.900000; stroke:none;">
<circle cx="1.768800" cy="1.768800" r="0.212500" /> 
<circle cx="2.406300" cy="1.768800" r="0.212500" /> 
<circle cx="3.043700" cy="1.768800" r="0.212500" /> 
<circle cx="3.681200" cy="1.768800" r="0.212500" /> 
<circle cx="4.318700" cy="1.768800" r="0.212500" /> 
<circle cx="4.956200" cy="1.768800" r="0.212500" /> 
<circle cx="5.593700" cy="1.768800" r="0.212500" /> 
<circle cx="6.231200" cy="1.768800" r="0.212500" /> 
<circle cx="6.868700" cy="1.768800" r="0.212500" /> 
<circle cx="7.506200" cy="1.768800" r="0.212500" /> 
<circle cx="8.143800" cy="1.768800" r="0.212500" /> 
<circle cx="8.781200" cy="1.768800" r="0.212500" /> 
<circle cx="9.418700" cy="1.768800" r="0.212500" /> 
<circle cx="10.056200" cy="1.768800" r="0.212500" /> 
<circle cx="10.693700" cy="1.768800" r="0.212500" /> 
<circle cx="11.331200" cy="1.768800" r="0.212500" /> 
<circle cx="1.768800" cy="2.406300" r="0.212500" /> 
<circle cx="2.406300" cy="2.406300" r="0.212500" /> 
<circle cx="3.043700" cy="2.406300" r="0.212500" /> 
<circle cx="3.681200" cy="2.406300" r="0.212500" /> 
<circle cx="4.318700" cy="2.406300" r="0.212500" /> 
<circle cx="4.956200" cy="2.406300" r="0.212500" /> 
<circle cx="5.593700" cy="2.406300" r="0.212500" /> 
<circle cx="6.231200" cy="2.406300" r="0.212500" /> 
<circle cx="6.868700" cy="2.406300" r="0.212500" /> 
<circle cx="7.506200" cy="2.406300" r="0.212500" /> 
<circle cx="8.143800" cy="2.406300" r="0.212500" /> 
<circle cx="8.781200" cy="2.406300" r="0.212500" /> 
<circle cx="9.418700" cy="2.406300" r="0.212500" /> 
<circle cx="10.056200" cy="2.406300" r="0.212500" /> 
<circle cx="10.693700" cy="2.406300" r="0.212500" /> 
<circle cx="11.331200" cy="2.406300" r="0.212500" /> 
<circle cx="1.768800" cy="3.043700" r="0.212500" /> 
<circle cx="2.406300" cy="3.043700" r="0.212500" /> 
<circle cx="3.043700" cy="3.043700" r="0.212500" /> 
<circle cx="3.681200" cy="3.043700" r="0.212500" /> 
<circle cx="4.318700" cy="3.043700" r="0.212500" /> 
<circle cx="4.956200" cy="3.043700" r="0.212500" /> 
<circle cx="5.593700" cy="3.043700" r="0.212500" /> 
<circle cx="6.231200" cy="3.043700" r="0.212500" /> 
<circle cx="6.868700" cy="3.043700" r="0.212500" /> 
<circle cx="7.506200" cy="3.043700" r="0.212500" /> 
<circle cx="8.143800" cy="3.043700" r="0.212500" /> 
<circle cx="8.781200" cy="3.043700" r="0.212500" /> 
<circle cx="9.418700" cy="3.043700" r="0.212500" /> 
<circle cx="10.056200" cy="3.043700" r="0.212500" /> 
<circle cx="10.693700" cy="3.043700" r="0.212500" /> 
<circle cx="11.331200" cy="3.043700" r="0.212500" /> 
<circle cx="1.768800" cy="3.681200" r="0.212500" /> 
<circle cx="2.406300" cy="3.681200" r="0.212500" /> 
<circle cx="3.043700" cy="3.681200" r="0.212500" /> 
<circle cx="3.681200" cy="3.681200" r="0.212500" /> 
<circle cx="4.318700" cy="3.681200" r="0.212500" /> 
<circle cx="4.956200" cy="3.681200" r="0.212500" /> 
<circle cx="5.593700" cy="3.681200" r="0.212500" /> 
<circle cx="6.231200" cy="3.681200" r="0.212500" /> 
<circle cx="6.868700" cy="3.681200" r="0.212500" /> 
<circle cx="7.506200" cy="3.681200" r="0.212500" /> 
<circle cx="8.143800" cy="3.681200" r="0.212500" /> 
<circle cx="8.781200" cy="3.681200" r="0.212500" /> 
<circle cx="9.418700" cy="3.681200" r="0.212500" /> 
<circle cx="10.056200" cy="3.681200" r="0.212500" /> 
<circle cx="10.693700" cy="3.681200" r="0.212500" /> 
<circle cx="11.331200" cy="3.681200" r="0.212500" /> 
<circle cx="1.768800" cy="4.318700" r="0.212500" /> 
<circle cx="2.406300" cy="4.318700" r="0.212500" /> 
<circle cx="3.043700" cy="4.318700" r="0.212500" /> 
<circle cx="3.681200" cy="4.318700" r="0.212500" /> 
<circle cx="4.318700" cy="4.318700" r="0.212500" /> 
<circle cx="4.956200" cy="4.318700" r="0.212500" /> 
<circle cx="5.593700" cy="4.318700" r="0.212500" /> 
<circle cx="6.231200" cy="4.318700" r="0.212500" /> 
<circle cx="6.868700" cy="4.318700" r="0.212500" /> 
<circle cx="7.506200" cy="4.318700" r="0.212500" /> 
<circle cx="8.143800" cy="4.318700" r="0.212500" /> 
<circle cx="8.781200" cy="4.318700" r="0.212500" /> 
<circle cx="9.418700" cy="4.318700" r="0.212500" /> 
<circle cx="10.056200" cy="4.318700" r="0.212500" /> 
<circle cx="10.693700" cy="4.318700" r="0.212500" /> 
<circle cx="11.331200" cy="4.318700" r="0.212500" /> 
<circle cx="1.768800" cy="4.956200" r="0.212500" /> 
<circle cx="2.406300" cy="4.956200" r="0.212500" /> 
<circle cx="3.043700" cy="4.956200" r="0.212500" /> 
<circle cx="3.681200" cy="4.956200" r="0.212500" /> 
<circle cx="4.318700" cy="4.956200" r="0.212500" /> 
<circle cx="4.956200" cy="4.956200" r="0.212500" /> 
<circle cx="5.593700" cy="4.956200" r="0.212500" /> 
<circle cx="6.231200" cy="4.956200" r="0.212500" /> 
<circle cx="6.868700" cy="4.956200" r="0.212500" /> 
<circle cx="7.506200" cy="4.956200" r="0.212500" /> 
<circle cx="8.143800" cy="4.956200" r="0.212500" /> 
<circle cx="8.781200" cy="4.956200" r="0.212500" /> 
<circle cx="9.418700" cy="4.956200" r="0.212500" /> 
<circle cx="10.056200" cy="4.956200" r="0.212500" /> 
<circle cx="10.693700" cy="4.956200" r="0.212500" /> 
<circle cx="11.331200" cy="4.956200" r="0.212500" /> 
<circle cx="1.768800" cy="5.593700" r="0.212500" /> 
<circle cx="2.406300" cy="5.593700" r="0.212500" /> 
<circle cx="3.043700" cy="5.593700" r="0.212500" /> 
<circle cx="3.681200" cy="5.593700" r="0.212500" /> 
<circle cx="4.318700" cy="5.593700" r="0.212500" /> 
<circle cx="4.956200" cy="5.593700" r="0.212500" /> 
<circle cx="5.593700" cy="5.593700" r="0.212500" /> 
<circle cx="6.231200" cy="5.593700" r="0.212500" /> 
<circle cx="6.868700" cy="5.593700" r="0.212500" /> 
<circle cx="7.506200" cy="5.593700" r="0.212500" /> 
<circle cx="8.143800" cy="5.593700" r="0.212500" /> 
<circle cx="8.781200" cy="5.593700" r="0.212500" /> 
<circle cx="9.418700" cy="5.593700" r="0.212500" /> 
<circle cx="10.056200" cy="5.593700" r="0.212500" /> 
<circle cx="10.693700" cy="5.593700" r="0.212500" /> 
<circle cx="11.331200" cy="5.593700" r="0.212500" /> 
<circle cx="1.768800" cy="6.231200" r="0.212500" /> 
<circle cx="2.406300" cy="6.231200" r="0.212500" /> 
<circle cx="3.043700" cy="6.231200" r="0.212500" /> 
<circle cx="3.681200" cy="6.231200" r="0.212500" /> 
<circle cx="4.318700" cy="6.231200" r="0.212500" /> 
<circle cx="4.956200" cy="6.231200" r="0.212500" /> 
<circle cx="5.593700" cy="6.231200" r="0.212500" /> 
<circle cx="6.231200" cy="6.231200" r="0.212500" /> 
<circle cx="6.868700" cy="6.231200" r="0.212500" /> 
<circle cx="7.506200" cy="6.231200" r="0.212500" /> 
<circle cx="8.143800" cy="6.231200" r="0.212500" /> 
<circle cx="8.781200" cy="6.231200" r="0.212500" /> 
<circle cx="9.418700" cy="6.231200" r="0.212500" /> 
<circle cx="10.056200" cy="6.231200" r="0.212500" /> 
<circle cx="10.693700" cy="6.231200" r="0.212500" /> 
<circle cx="11.331200" cy="6.231200" r="0.212500" /> 
<circle cx="1.768800" cy="6.868700" r="0.212500" /> 
<circle cx="2.406300" cy="6.868700" r="0.212500" /> 
<circle cx="3.043700" cy="6.868700" r="0.212500" /> 
<circle cx="3.681200" cy="6.868700" r="0.212500" /> 
<circle cx="4.318700" cy="6.868700" r="0.212500" /> 
<circle cx="4.956200" cy="6.868700" r="0.212500" /> 
<circle cx="5.593700" cy="6.868700" r="0.212500" /> 
<circle cx="6.231200" cy="6.868700" r="0.212500" /> 
<circle cx="6.868700" cy="6.868700" r="0.212500" /> 
<circle cx="7.506200" cy="6.868700" r="0.212500" /> 
<circle cx="8.143800" cy="6.868700" r="0.212500" /> 
<circle cx="8.781200" cy="6.868700" r="0.212500" /> 
<circle cx="9.418700" cy="6.868700" r="0.212500" /> 
<circle cx="10.056200" cy="6.868700" r="0.212500" /> 
<circle cx="10.693700" cy="6.868700" r="0.212500" /> 
<circle cx="11.331200" cy="6.868700" r="0.212500" /> 
<circle cx="1.768800" cy="7.506200" r="0.212500" /> 
<circle cx="2.406300" cy="7.506200" r="0.212500" /> 
<circle cx="3.043700" cy="7.506200" r="0.212500" /> 
<circle cx="3.681200" cy="7.506200" r="0.212500" /> 
<circle cx="4.318700" cy="7.506200" r="0.212500" /> 
<circle cx="4.956200" cy="7.506200" r="0.212500" /> 
<circle cx="5.593700" cy="7.506200" r="0.212500" /> 
<circle cx="6.231200" cy="7.506200" r="0.212500" /> 
<circle cx="6.868700" cy="7.506200" r="0.212500" /> 
<circle cx="7.506200" cy="7.506200" r="0.212500" /> 
<circle cx="8.143800" cy="7.506200" r="0.212500" /> 
<circle cx="8.781200" cy="7.506200" r="0.212500" /> 
<circle cx="9.418700" cy="7.506200" r="0.212500" /> 
<circle cx="10.056200" cy="7.506200" r="0.212500" /> 
<circle cx="10.693700" cy="7.506200" r="0.212500" /> 
<circle cx="11.331200" cy="7.506200" r="0.212500" /> 
<circle cx="1.768800" cy="8.143800" r="0.212500" /> 
<circle cx="2.406300" cy="8.143800" r="0.212500" /> 
<circle cx="3.043700" cy="8.143800" r="0.212500" /> 
<circle cx="3.681200" cy="8.143800" r="0.212500" /> 
<circle cx="4.318700" cy="8.143800" r="0.212500" /> 
<circle cx="4.956200" cy="8.143800" r="0.212500" /> 
<circle cx="5.593700" cy="8.143800" r="0.212500" /> 
<circle cx="6.231200" cy="8.143800" r="0.212500" /> 
<circle cx="6.868700" cy="8.143800" r="0.212500" /> 
<circle cx="7.506200" cy="8.143800" r="0.212500" /> 
<circle cx="8.143800" cy="8.143800" r="0.212500" /> 
<circle cx="8.781200" cy="8.143800" r="0.212500" /> 
<circle cx="9.418700" cy="8.143800" r="0.212500" /> 
<circle cx="10.056200" cy="8.143800" r="0.212500" /> 
<circle cx="10.693700" cy="8.143800" r="0.212500" /> 
<circle cx="11.331200" cy="8.143800" r="0.212500" /> 
<circle cx="1.768800" cy="8.781200" r="0.212500" /> 
<circle cx="2.406300" cy="8.781200" r="0.212500" /> 
<circle cx="3.043700" cy="8.781200" r="0.212500" /> 
<circle cx="3.681200" cy="8.781200" r="0.212500" /> 
<circle cx="4.318700" cy="8.781200" r="0.212500" /> 
<circle cx="4.956200" cy="8.781200" r="0.212500" /> 
<circle cx="5.593700" cy="8.781200" r="0.212500" /> 
<circle cx="6.231200" cy="8.781200" r="0.212500" /> 
<circle cx="6.868700" cy="8.781200" r="0.212500" /> 
<circle cx="7.506200" cy="8.781200" r="0.212500" /> 
<circle cx="8.143800" cy="8.781200" r="0.212500" /> 
<circle cx="8.781200" cy="8.781200" r="0.212500" /> 
<circle cx="9.418700" cy="8.781200" r="0.212500" /> 
<circle cx="10.056200" cy="8.781200" r="0.212500" /> 
<circle cx="10.693700" cy="8.781200" r="0.212500" /> 
<circle cx="11.331200" cy="8.781200" r="0.212500" /> 
<circle cx="1.768800" cy="9.418700" r="0.212500" /> 
<circle cx="2.406300" cy="9.418700" r="0.212500" /> 
<circle cx="3.043700" cy="9.418700" r="0.212500" /> 
<circle cx="3.681200" cy="9.418700" r="0.212500" /> 
<circle cx="4.318700" cy="9.418700" r="0.212500" /> 
<circle cx="4.956200" cy="9.418700" r="0.212500" /> 
<circle cx="5.593700" cy="9.418700" r="0.212500" /> 
<circle cx="6.231200" cy="9.418700" r="0.212500" /> 
<circle cx="6.868700" cy="9.418700" r="0.212500" /> 
<circle cx="7.506200" cy="9.418700" r="0.212500" /> 
<circle cx="8.143800" cy="9.418700" r="0.212500" /> 
<circle cx="8.781200" cy="9.418700" r="0.212500" /> 
<circle cx="9.418700" cy="9.418700" r="0.212500" /> 
<circle cx="10.056200" cy="9.418700" r="0.212500" /> 
<circle cx="10.693700" cy="9.418700" r="0.212500" /> 
<circle cx="11.331200" cy="9.418700" r="0.212500" /> 
<circle cx="1.768800" cy="10.056200" r="0.212500" /> 
<circle cx="2.406300" cy="10.056200" r="0.212500" /> 
<circle cx="3.043700" cy="10.056200" r="0.212500" /> 
<circle cx="3.681200" cy="10.056200" r="0.212500" /> 
<circle cx="4.318700" cy="10.056200" r="0.212500" /> 
<circle cx="4.956200" cy="10.056200" r="0.212500" /> 
<circle cx="5.593700" cy="10.056200" r="0.212500" /> 
<circle cx="6.231200" cy="10.056200" r="0.212500" /> 
<circle cx="6.868700" cy="10.056200" r="0.212500" /> 
<circle cx="7.506200" cy="10.056200" r="0.212500" /> 
<circle cx="8.143800" cy="10.056200" r="0.212500" /> 
<circle cx="8.781200" cy="10.056200" r="0.212500" /> 
<circle cx="9.418700" cy="10.056200" r="0.212500" /> 
<circle cx="10.056200" cy="10.056200" r="0.212500" /> 
<circle cx="10.693700" cy="10.056200" r="0.212500" /> 
<circle cx="11.331200" cy="10.056200" r="0.212500" /> 
<circle cx="1.768800" cy="10.693700" r="0.212500" /> 
<circle cx="2.406300" cy="10.693700" r="0.212500" /> 
<circle cx="3.043700" cy="10.693700" r="0.212500" /> 
<circle cx="3.681200" cy="10.693700" r="0.212500" /> 
<circle cx="4.318700" cy="10.693700" r="0.212500" /> 
<circle cx="4.956200" cy="10.693700" r="0.212500" /> 
<circle cx="5.593700" cy="10.693700" r="0.212500" /> 
<circle cx="6.231200" cy="10.693700" r="0.212500" /> 
<circle cx="6.868700" cy="10.693700" r="0.212500" /> 
<circle cx="7.506200" cy="10.693700" r="0.212500" /> 
<circle cx="8.143800" cy="10.693700" r="0.212500" /> 
<circle cx="8.781200" cy="10.693700" r="0.212500" /> 
<circle cx="9.418700" cy="10.693700" r="0.212500" /> 
<circle cx="10.056200" cy="10.693700" r="0.212500" /> 
<circle cx="10.693700" cy="10.693700" r="0.212500" /> 
<circle cx="11.331200" cy="10.693700" r="0.212500" /> 
<circle cx="1.768800" cy="11.331200" r="0.212500" /> 
<circle cx="2.406300" cy="11.331200" r="0.212500" /> 
<circle cx="3.043700" cy="11.331200" r="0.212500" /> 
<circle cx="3.681200" cy="11.331200" r="0.212500" /> 
<circle cx="4.318700" cy="11.331200" r="0.212500" /> 
<circle cx="4.956200" cy="11.331200" r="0.212500" /> 
<circle cx="5.593700" cy="11.331200" r="0.212500" /> 
<circle cx="6.231200" cy="11.331200" r="0.212500" /> 
<circle cx="6.868700" cy="11.331200" r="0.212500" /> 
<circle cx="7.506200" cy="11.331200" r="0.212500" /> 
<circle cx="8.143800" cy="11.331200" r="0.212500" /> 
<circle cx="8.781200" cy="11.331200" r="0.212500" /> 
<circle cx="9.418700" cy="11.331200" r="0.212500" /> 
<circle cx="10.056200" cy="11.331200" r="0.212500" /> 
<circle cx="10.693700" cy="11.331200" r="0.212500" /> 
<circle cx="11.331200" cy="11.331200" r="0.212500" /> 
</g>
<g style="fill:none; 
stroke:#F2EDA1; stroke-width:0.120000; stroke-opacity:1; 
stroke-linecap:round; stroke-linejoin:round;">
<path d="M0.450000 0.450000
L12.650000 0.450000
" />
<path d="M12.650000 0.450000
L12.650000 12.650000
" />
<path d="M12.650000 12.650000
L0.450000 12.650000
" />
<path d="M0.450000 12.650000
L0.450000 0.450000
" />
</g>
<g style="fill:none; 
stroke:#FF26E2; stroke-width:0.050000; stroke-opacity:1; 
stroke-linecap:round; stroke-linejoin:round;">
<path d="M1.306200 1.306200
L11.793800 1.306200
" />
<path d="M11.793800 1.306200
L11.793800 11.793800
" />
<path d="M11.793800 11.793800
L1.306200 11.793800
" />
<path d="M1.306200 11.793800
L1.306200 1.306200
" />
</g>
<g style="fill:none; 
stroke:#AFAFAF; stroke-width:0.100000; stroke-opacity:1; 
stroke-linecap:round; stroke-linejoin:round;">
<circle cx="0.550000" cy="0.550000" r="0.500000" /> 
</g> 
</svg>
