<?xml version="1.0" standalone="no"?>
 <!DOCTYPE svg PUBLIC "-//W3C//DTD SVG 1.1//EN" 
 "http://www.w3.org/Graphics/SVG/1.1/DTD/svg11.dtd"> 
<svg
  xmlns:svg="http://www.w3.org/2000/svg"
  xmlns="http://www.w3.org/2000/svg"
  xmlns:xlink="http://www.w3.org/1999/xlink"
  xmlns:inkscape="http://www.inkscape.org/namespaces/inkscape"
  version="1.1"
  width="6.883400mm" height="5.283200mm" viewBox="0.000000 0.000000 6.883400 5.283200">
<title>SVG Image created as chip.svg date 2026-04-30T01:11:39 </title>
  <desc>Image generated by PCBNEW </desc>
<g style="fill:#000000; fill-opacity:1.000000;stroke:#000000; stroke-opacity:1.000000;
stroke-linecap:round; stroke-linejoin:round;"
 transform="translate(0 0) scale(1 1)">
<path style="fill:#C83434; fill-opacity:1.000000; stroke:none;fill-rule:evenodd;"
d="M 0.600000,1.137500
0.615283,1.010239
0.668982,0.874066
0.757430,0.757430
0.874066,0.668982
1.010239,0.615283
1.137500,0.600000
2.212500,0.600000
2.339761,0.615283
2.475934,0.668982
2.592570,0.757430
2.681018,0.874066
2.734717,1.010239
2.750000,1.137500
2.750000,4.162500
2.734717,4.289761
2.681018,4.425934
2.592570,4.542570
2.475934,4.631018
2.339761,4.684717
2.212500,4.700000
1.137500,4.700000
1.010239,4.684717
0.874066,4.631018
0.757430,4.542570
0.668982,4.425934
0.615283,4.289761
0.600000,4.162500
Z" /> 
<path style="fill:#C83434; fill-opacity:1.000000; stroke:none;fill-rule:evenodd;"
d="M 4.150000,1.137500
4.165283,1.010239
4.218982,0.874066
4.307430,0.757430
4.424066,0.668982
4.560239,0.615283
4.687500,0.600000
5.762500,0.600000
5.889761,0.615283
6.025934,0.668982
6.142570,0.757430
6.231018,0.874066
6.284717,1.010239
6.300000,1.137500
6.300000,4.162500
6.284717,4.289761
6.231018,4.425934
6.142570,4.542570
6.025934,4.631018
5.889761,4.684717
5.762500,4.700000
4.687500,4.700000
4.560239,4.684717
4.424066,4.631018
4.307430,4.542570
4.218982,4.425934
4.165283,4.289761
4.150000,4.162500
Z" /> 
<path style="fill:#D864FF; fill-opacity:0.400000; stroke:none;fill-rule:evenodd;"
d="M 0.600000,1.137500
0.615283,1.010239
0.668982,0.874066
0.757430,0.757430
0.874066,0.668982
1.010239,0.615283
1.137500,0.600000
2.212500,0.600000
2.339761,0.615283
2.475934,0.668982
2.592570,0.757430
2.681018,0.874066
2.734717,1.010239
2.750000,1.137500
2.750000,4.162500
2.734717,4.289761
2.681018,4.425934
2.592570,4.542570
2.475934,4.631018
2.339761,4.684717
2.212500,4.700000
1.137500,4.700000
1.010239,4.684717
0.874066,4.631018
0.757430,4.542570
0.668982,4.425934
0.615283,4.289761
0.600000,4.162500
Z" /> 
<path style="fill:#D864FF; fill-opacity:0.400000; stroke:none;fill-rule:evenodd;"
d="M 4.150000,1.137500
4.165283,1.010239
4.218982,0.874066
4.307430,0.757430
4.424066,0.668982
4.560239,0.615283
4.687500,0.600000
5.762500,0.600000
5.889761,0.615283
6.025934,0.668982
6.142570,0.757430
6.231018,0.874066
6.284717,1.010239
6.300000,1.137500
6.300000,4.162500
6.284717,4.289761
6.231018,4.425934
6.142570,4.542570
6.025934,4.631018
5.889761,4.684717
5.762500,4.700000
4.687500,4.700000
4.560239,4.684717
4.424066,4.631018
4.307430,4.542570
4.218982,4.425934
4.165283,4.289761
4.150000,4.162500
Z" /> 
<path style="fill:#B4A09A; fill-opacity:0.900000; stroke:none;fill-rule:evenodd;"
d="M 0.600000,1.137500
0.615283,1.010239
0.668982,0.874066
0.757430,0.757430
0.874066,0.668982
1.010239,0.615283
1.137500,0.600000
2.212500,0.600000
2.339761,0.615283
2.475934,0.668982
2.592570,0.757430
2.681018,0.874066
2.734717,1.010239
2.750000,1.137500
2.750000,4.162500
2.734717,4.289761
2.681018,4.425934
2.592570,4.542570
2.475934,4.631018
2.339761,4.684717
2.212500,4.700000
1.137500,4.700000
1.010239,4.684717
0.874066,4.631018
0.757430,4.542570
0.668982,4.425934
0.615283,4.289761
0.600000,4.162500
Z" /> 
<path style="fill:#B4A09A; fill-opacity:0.900000; stroke:none;fill-rule:evenodd;"
d="M 4.150000,1.137500
4.165283,1.010239
4.218982,0.874066
4.307430,0.757430
4.424066,0.668982
4.560239,0.615283
4.687500,0.600000
5.762500,0.600000
5.889761,0.615283
6.025934,0.668982
6.142570,0.757430
6.231018,0.874066
6.284717,1.010239
6.300000,1.137500
6.300000,4.162500
6.284717,4.289761
6.231018,4.425934
6.142570,4.542570
6.025934,4.631018
5.889761,4.684717
5.762500,4.700000
4.687500,4.700000
4.560239,4.684717
4.424066,4.631018
4.307430,4.542570
4.218982,4.425934
4.165283,4.289761
4.150000,4.162500
Z" /> 
</g>
<g style="fill:none; 
stroke:#F2EDA1; stroke-width:0.120000; stroke-opacity:1; 
stroke-linecap:round; stroke-linejoin:round;">
<path d="M1.750000 1.750000
L5.150000 1.750000
" />
<path d="M5.150000 1.750000
L5.150000 3.550000
" />
<path d="M5.150000 3.550000
L1.750000 3.550000
" />
<path d="M1.750000 3.550000
L1.750000 1.750000
" />
</g>
<g style="fill:none; 
stroke:#FF26E2; stroke-width:0.050000; stroke-opacity:1; 
stroke-linecap:round; stroke-linejoin:round;">
<path d="M0.025000 0.025000
L6.875000 0.025000
" />
<path d="M6.875000 0.025000
L6.875000 5.275000
" />
<path d="M6.875000 5.275000
L0.025000 5.275000
" />
<path d="M0.025000 5.275000
L0.025000 0.025000
" />
</g>
<g style="fill:none; 
stroke:#AFAFAF; stroke-width:0.100000; stroke-opacity:1; 
stroke-linecap:round; stroke-linejoin:round;">
<circle cx="1.850000" cy="1.850000" r="0.500000" /> 
</g> 
</svg>
