<?xml version="1.0" standalone="no"?>
 <!DOCTYPE svg PUBLIC "-//W3C//DTD SVG 1.1//EN" 
 "http://www.w3.org/Graphics/SVG/1.1/DTD/svg11.dtd"> 
<svg
  xmlns:svg="http://www.w3.org/2000/svg"
  xmlns="http://www.w3.org/2000/svg"
  xmlns:xlink="http://www.w3.org/1999/xlink"
  xmlns:inkscape="http://www.inkscape.org/namespaces/inkscape"
  version="1.1"
  width="11.430000mm" height="8.966200mm" viewBox="0.000000 0.000000 11.430000 8.966200">
<title>SVG Image created as dip.svg date 2026-04-30T01:11:40 </title>
  <desc>Image generated by PCBNEW </desc>
<g style="fill:#000000; fill-opacity:1.000000;stroke:#000000; stroke-opacity:1.000000;
stroke-linecap:round; stroke-linejoin:round;"
 transform="translate(0 0) scale(1 1)">
</g>
<g style="fill:#4D7FC4; fill-opacity:1.000000; stroke:none;">
<circle cx="0.675000" cy="0.675000" r="0.400000" /> 
<circle cx="0.675000" cy="3.215000" r="0.400000" /> 
<circle cx="0.675000" cy="5.755000" r="0.400000" /> 
<circle cx="0.675000" cy="8.295000" r="0.400000" /> 
<circle cx="10.775000" cy="0.675000" r="0.400000" /> 
<circle cx="10.775000" cy="3.215000" r="0.400000" /> 
<circle cx="10.775000" cy="5.755000" r="0.400000" /> 
<circle cx="10.775000" cy="8.295000" r="0.400000" /> 
</g>
<g style="fill:#C83434; fill-opacity:1.000000; stroke:none;">
<circle cx="0.675000" cy="0.675000" r="0.400000" /> 
<circle cx="0.675000" cy="3.215000" r="0.400000" /> 
<circle cx="0.675000" cy="5.755000" r="0.400000" /> 
<circle cx="0.675000" cy="8.295000" r="0.400000" /> 
<circle cx="10.775000" cy="0.675000" r="0.400000" /> 
<circle cx="10.775000" cy="3.215000" r="0.400000" /> 
<circle cx="10.775000" cy="5.755000" r="0.400000" /> 
<circle cx="10.775000" cy="8.295000" r="0.400000" /> 
</g>
<g style="fill:none; 
stroke:#F2EDA1; stroke-width:0.120000; stroke-opacity:1; 
stroke-linecap:round; stroke-linejoin:round;">
<path d="M0.975000 1.185000
L10.475000 1.185000
" />
<path d="M10.475000 1.185000
L10.475000 7.785000
" />
<path d="M10.475000 7.785000
L0.975000 7.785000
" />
<path d="M0.975000 7.785000
L0.975000 1.185000
" />
</g>
<g style="fill:none; 
stroke:#FF26E2; stroke-width:0.050000; stroke-opacity:1; 
stroke-linecap:round; stroke-linejoin:round;">
<path d="M0.025000 0.025000
L11.425000 0.025000
" />
<path d="M11.425000 0.025000
L11.425000 8.945000
" />
<path d="M11.425000 8.945000
L0.025000 8.945000
" />
<path d="M0.025000 8.945000
L0.025000 0.025000
" />
</g>
<g style="fill:none; 
stroke:#AFAFAF; stroke-width:0.100000; stroke-opacity:1; 
stroke-linecap:round; stroke-linejoin:round;">
<circle cx="1.075000" cy="1.285000" r="0.500000" /> 
</g> 
</svg>
