<?xml version="1.0" standalone="no"?>
 <!DOCTYPE svg PUBLIC "-//W3C//DTD SVG 1.1//EN" 
 "http://www.w3.org/Graphics/SVG/1.1/DTD/svg11.dtd"> 
<svg
  xmlns:svg="http://www.w3.org/2000/svg"
  xmlns="http://www.w3.org/2000/svg"
  xmlns:xlink="http://www.w3.org/1999/xlink"
  xmlns:inkscape="http://www.inkscape.org/namespaces/inkscape"
  version="1.1"
  width="12.039600mm" height="9.245600mm" viewBox="0.000000 0.000000 12.039600 9.245600">
<title>SVG Image created as dip8.svg date 2026-04-30T00:38:03 </title>
  <desc>Image generated by PCBNEW </desc>
<g style="fill:#000000; fill-opacity:1.000000;stroke:#000000; stroke-opacity:1.000000;
stroke-linecap:round; stroke-linejoin:round;"
 transform="translate(0 0) scale(1 1)">
</g>
<g style="fill:#4D7FC4; fill-opacity:1.000000; stroke:none;">
<circle cx="0.825000" cy="0.825000" r="0.550000" /> 
<circle cx="0.825000" cy="3.365000" r="0.550000" /> 
<circle cx="0.825000" cy="5.905000" r="0.550000" /> 
<circle cx="0.825000" cy="8.445000" r="0.550000" /> 
<circle cx="11.225000" cy="0.825000" r="0.550000" /> 
<circle cx="11.225000" cy="3.365000" r="0.550000" /> 
<circle cx="11.225000" cy="5.905000" r="0.550000" /> 
<circle cx="11.225000" cy="8.445000" r="0.550000" /> 
</g>
<g style="fill:#C83434; fill-opacity:1.000000; stroke:none;">
<circle cx="0.825000" cy="0.825000" r="0.550000" /> 
<circle cx="0.825000" cy="3.365000" r="0.550000" /> 
<circle cx="0.825000" cy="5.905000" r="0.550000" /> 
<circle cx="0.825000" cy="8.445000" r="0.550000" /> 
<circle cx="11.225000" cy="0.825000" r="0.550000" /> 
<circle cx="11.225000" cy="3.365000" r="0.550000" /> 
<circle cx="11.225000" cy="5.905000" r="0.550000" /> 
<circle cx="11.225000" cy="8.445000" r="0.550000" /> 
</g>
<g style="fill:none; 
stroke:#F2EDA1; stroke-width:0.120000; stroke-opacity:1; 
stroke-linecap:round; stroke-linejoin:round;">
<path d="M1.275000 1.335000
L10.775000 1.335000
" />
<path d="M10.775000 1.335000
L10.775000 7.935000
" />
<path d="M10.775000 7.935000
L1.275000 7.935000
" />
<path d="M1.275000 7.935000
L1.275000 1.335000
" />
</g>
<g style="fill:none; 
stroke:#FF26E2; stroke-width:0.050000; stroke-opacity:1; 
stroke-linecap:round; stroke-linejoin:round;">
<path d="M0.025000 0.025000
L12.025000 0.025000
" />
<path d="M12.025000 0.025000
L12.025000 9.245000
" />
<path d="M12.025000 9.245000
L0.025000 9.245000
" />
<path d="M0.025000 9.245000
L0.025000 0.025000
" />
</g>
<g style="fill:none; 
stroke:#AFAFAF; stroke-width:0.100000; stroke-opacity:1; 
stroke-linecap:round; stroke-linejoin:round;">
<circle cx="1.375000" cy="1.435000" r="0.500000" /> 
</g> 
</svg>
