<?xml version="1.0" standalone="no"?>
 <!DOCTYPE svg PUBLIC "-//W3C//DTD SVG 1.1//EN" 
 "http://www.w3.org/Graphics/SVG/1.1/DTD/svg11.dtd"> 
<svg
  xmlns:svg="http://www.w3.org/2000/svg"
  xmlns="http://www.w3.org/2000/svg"
  xmlns:xlink="http://www.w3.org/1999/xlink"
  xmlns:inkscape="http://www.inkscape.org/namespaces/inkscape"
  version="1.1"
  width="6.934200mm" height="9.829800mm" viewBox="0.000000 0.000000 6.934200 9.829800">
<title>SVG Image created as qfn.svg date 2026-04-30T01:11:40 </title>
  <desc>Image generated by PCBNEW </desc>
<g style="fill:#000000; fill-opacity:1.000000;stroke:#000000; stroke-opacity:1.000000;
stroke-linecap:round; stroke-linejoin:round;"
 transform="translate(0 0) scale(1 1)">
<path style="fill:#C83434; fill-opacity:1.000000; stroke:none;fill-rule:evenodd;"
d="M 0.275000,0.425000
0.286418,0.367597
0.318934,0.318934
0.367597,0.286418
0.425000,0.275000
0.725000,0.275000
0.782403,0.286418
0.831066,0.318934
0.863582,0.367597
0.875000,0.425000
0.875000,1.925000
0.863582,1.982403
0.831066,2.031066
0.782403,2.063582
0.725000,2.075000
0.425000,2.075000
0.367597,2.063582
0.318934,2.031066
0.286418,1.982403
0.275000,1.925000
Z" /> 
<path style="fill:#C83434; fill-opacity:1.000000; stroke:none;fill-rule:evenodd;"
d="M 6.075000,0.425000
6.086418,0.367597
6.118934,0.318934
6.167597,0.286418
6.225000,0.275000
6.525000,0.275000
6.582403,0.286418
6.631066,0.318934
6.663582,0.367597
6.675000,0.425000
6.675000,1.925000
6.663582,1.982403
6.631066,2.031066
6.582403,2.063582
6.525000,2.075000
6.225000,2.075000
6.167597,2.063582
6.118934,2.031066
6.086418,1.982403
6.075000,1.925000
Z" /> 
<path style="fill:#C83434; fill-opacity:1.000000; stroke:none;fill-rule:evenodd;"
d="M 0.275000,0.925000
0.286418,0.867597
0.318934,0.818934
0.367597,0.786418
0.425000,0.775000
0.725000,0.775000
0.782403,0.786418
0.831066,0.818934
0.863582,0.867597
0.875000,0.925000
0.875000,2.425000
0.863582,2.482403
0.831066,2.531066
0.782403,2.563582
0.725000,2.575000
0.425000,2.575000
0.367597,2.563582
0.318934,2.531066
0.286418,2.482403
0.275000,2.425000
Z" /> 
<path style="fill:#C83434; fill-opacity:1.000000; stroke:none;fill-rule:evenodd;"
d="M 6.075000,0.925000
6.086418,0.867597
6.118934,0.818934
6.167597,0.786418
6.225000,0.775000
6.525000,0.775000
6.582403,0.786418
6.631066,0.818934
6.663582,0.867597
6.675000,0.925000
6.675000,2.425000
6.663582,2.482403
6.631066,2.531066
6.582403,2.563582
6.525000,2.575000
6.225000,2.575000
6.167597,2.563582
6.118934,2.531066
6.086418,2.482403
6.075000,2.425000
Z" /> 
<path style="fill:#C83434; fill-opacity:1.000000; stroke:none;fill-rule:evenodd;"
d="M 0.275000,1.425000
0.286418,1.367597
0.318934,1.318934
0.367597,1.286418
0.425000,1.275000
0.725000,1.275000
0.782403,1.286418
0.831066,1.318934
0.863582,1.367597
0.875000,1.425000
0.875000,2.925000
0.863582,2.982403
0.831066,3.031066
0.782403,3.063582
0.725000,3.075000
0.425000,3.075000
0.367597,3.063582
0.318934,3.031066
0.286418,2.982403
0.275000,2.925000
Z" /> 
<path style="fill:#C83434; fill-opacity:1.000000; stroke:none;fill-rule:evenodd;"
d="M 6.075000,1.425000
6.086418,1.367597
6.118934,1.318934
6.167597,1.286418
6.225000,1.275000
6.525000,1.275000
6.582403,1.286418
6.631066,1.318934
6.663582,1.367597
6.675000,1.425000
6.675000,2.925000
6.663582,2.982403
6.631066,3.031066
6.582403,3.063582
6.525000,3.075000
6.225000,3.075000
6.167597,3.063582
6.118934,3.031066
6.086418,2.982403
6.075000,2.925000
Z" /> 
<path style="fill:#C83434; fill-opacity:1.000000; stroke:none;fill-rule:evenodd;"
d="M 0.275000,1.925000
0.286418,1.867597
0.318934,1.818934
0.367597,1.786418
0.425000,1.775000
0.725000,1.775000
0.782403,1.786418
0.831066,1.818934
0.863582,1.867597
0.875000,1.925000
0.875000,3.425000
0.863582,3.482403
0.831066,3.531066
0.782403,3.563582
0.725000,3.575000
0.425000,3.575000
0.367597,3.563582
0.318934,3.531066
0.286418,3.482403
0.275000,3.425000
Z" /> 
<path style="fill:#C83434; fill-opacity:1.000000; stroke:none;fill-rule:evenodd;"
d="M 6.075000,1.925000
6.086418,1.867597
6.118934,1.818934
6.167597,1.786418
6.225000,1.775000
6.525000,1.775000
6.582403,1.786418
6.631066,1.818934
6.663582,1.867597
6.675000,1.925000
6.675000,3.425000
6.663582,3.482403
6.631066,3.531066
6.582403,3.563582
6.525000,3.575000
6.225000,3.575000
6.167597,3.563582
6.118934,3.531066
6.086418,3.482403
6.075000,3.425000
Z" /> 
<path style="fill:#C83434; fill-opacity:1.000000; stroke:none;fill-rule:evenodd;"
d="M 0.275000,2.425000
0.286418,2.367597
0.318934,2.318934
0.367597,2.286418
0.425000,2.275000
0.725000,2.275000
0.782403,2.286418
0.831066,2.318934
0.863582,2.367597
0.875000,2.425000
0.875000,3.925000
0.863582,3.982403
0.831066,4.031066
0.782403,4.063582
0.725000,4.075000
0.425000,4.075000
0.367597,4.063582
0.318934,4.031066
0.286418,3.982403
0.275000,3.925000
Z" /> 
<path style="fill:#C83434; fill-opacity:1.000000; stroke:none;fill-rule:evenodd;"
d="M 6.075000,2.425000
6.086418,2.367597
6.118934,2.318934
6.167597,2.286418
6.225000,2.275000
6.525000,2.275000
6.582403,2.286418
6.631066,2.318934
6.663582,2.367597
6.675000,2.425000
6.675000,3.925000
6.663582,3.982403
6.631066,4.031066
6.582403,4.063582
6.525000,4.075000
6.225000,4.075000
6.167597,4.063582
6.118934,4.031066
6.086418,3.982403
6.075000,3.925000
Z" /> 
<path style="fill:#C83434; fill-opacity:1.000000; stroke:none;fill-rule:evenodd;"
d="M 0.275000,2.925000
0.286418,2.867597
0.318934,2.818934
0.367597,2.786418
0.425000,2.775000
0.725000,2.775000
0.782403,2.786418
0.831066,2.818934
0.863582,2.867597
0.875000,2.925000
0.875000,4.425000
0.863582,4.482403
0.831066,4.531066
0.782403,4.563582
0.725000,4.575000
0.425000,4.575000
0.367597,4.563582
0.318934,4.531066
0.286418,4.482403
0.275000,4.425000
Z" /> 
<path style="fill:#C83434; fill-opacity:1.000000; stroke:none;fill-rule:evenodd;"
d="M 6.075000,2.925000
6.086418,2.867597
6.118934,2.818934
6.167597,2.786418
6.225000,2.775000
6.525000,2.775000
6.582403,2.786418
6.631066,2.818934
6.663582,2.867597
6.675000,2.925000
6.675000,4.425000
6.663582,4.482403
6.631066,4.531066
6.582403,4.563582
6.525000,4.575000
6.225000,4.575000
6.167597,4.563582
6.118934,4.531066
6.086418,4.482403
6.075000,4.425000
Z" /> 
<path style="fill:#C83434; fill-opacity:1.000000; stroke:none;fill-rule:evenodd;"
d="M 0.275000,3.425000
0.286418,3.367597
0.318934,3.318934
0.367597,3.286418
0.425000,3.275000
0.725000,3.275000
0.782403,3.286418
0.831066,3.318934
0.863582,3.367597
0.875000,3.425000
0.875000,4.925000
0.863582,4.982403
0.831066,5.031066
0.782403,5.063582
0.725000,5.075000
0.425000,5.075000
0.367597,5.063582
0.318934,5.031066
0.286418,4.982403
0.275000,4.925000
Z" /> 
<path style="fill:#C83434; fill-opacity:1.000000; stroke:none;fill-rule:evenodd;"
d="M 6.075000,3.425000
6.086418,3.367597
6.118934,3.318934
6.167597,3.286418
6.225000,3.275000
6.525000,3.275000
6.582403,3.286418
6.631066,3.318934
6.663582,3.367597
6.675000,3.425000
6.675000,4.925000
6.663582,4.982403
6.631066,5.031066
6.582403,5.063582
6.525000,5.075000
6.225000,5.075000
6.167597,5.063582
6.118934,5.031066
6.086418,4.982403
6.075000,4.925000
Z" /> 
<path style="fill:#C83434; fill-opacity:1.000000; stroke:none;fill-rule:evenodd;"
d="M 0.275000,3.925000
0.286418,3.867597
0.318934,3.818934
0.367597,3.786418
0.425000,3.775000
0.725000,3.775000
0.782403,3.786418
0.831066,3.818934
0.863582,3.867597
0.875000,3.925000
0.875000,5.425000
0.863582,5.482403
0.831066,5.531066
0.782403,5.563582
0.725000,5.575000
0.425000,5.575000
0.367597,5.563582
0.318934,5.531066
0.286418,5.482403
0.275000,5.425000
Z" /> 
<path style="fill:#C83434; fill-opacity:1.000000; stroke:none;fill-rule:evenodd;"
d="M 6.075000,3.925000
6.086418,3.867597
6.118934,3.818934
6.167597,3.786418
6.225000,3.775000
6.525000,3.775000
6.582403,3.786418
6.631066,3.818934
6.663582,3.867597
6.675000,3.925000
6.675000,5.425000
6.663582,5.482403
6.631066,5.531066
6.582403,5.563582
6.525000,5.575000
6.225000,5.575000
6.167597,5.563582
6.118934,5.531066
6.086418,5.482403
6.075000,5.425000
Z" /> 
<path style="fill:#C83434; fill-opacity:1.000000; stroke:none;fill-rule:evenodd;"
d="M 0.275000,4.425000
0.286418,4.367597
0.318934,4.318934
0.367597,4.286418
0.425000,4.275000
0.725000,4.275000
0.782403,4.286418
0.831066,4.318934
0.863582,4.367597
0.875000,4.425000
0.875000,5.925000
0.863582,5.982403
0.831066,6.031066
0.782403,6.063582
0.725000,6.075000
0.425000,6.075000
0.367597,6.063582
0.318934,6.031066
0.286418,5.982403
0.275000,5.925000
Z" /> 
<path style="fill:#C83434; fill-opacity:1.000000; stroke:none;fill-rule:evenodd;"
d="M 6.075000,4.425000
6.086418,4.367597
6.118934,4.318934
6.167597,4.286418
6.225000,4.275000
6.525000,4.275000
6.582403,4.286418
6.631066,4.318934
6.663582,4.367597
6.675000,4.425000
6.675000,5.925000
6.663582,5.982403
6.631066,6.031066
6.582403,6.063582
6.525000,6.075000
6.225000,6.075000
6.167597,6.063582
6.118934,6.031066
6.086418,5.982403
6.075000,5.925000
Z" /> 
<path style="fill:#C83434; fill-opacity:1.000000; stroke:none;fill-rule:evenodd;"
d="M 0.275000,4.925000
0.286418,4.867597
0.318934,4.818934
0.367597,4.786418
0.425000,4.775000
0.725000,4.775000
0.782403,4.786418
0.831066,4.818934
0.863582,4.867597
0.875000,4.925000
0.875000,6.425000
0.863582,6.482403
0.831066,6.531066
0.782403,6.563582
0.725000,6.575000
0.425000,6.575000
0.367597,6.563582
0.318934,6.531066
0.286418,6.482403
0.275000,6.425000
Z" /> 
<path style="fill:#C83434; fill-opacity:1.000000; stroke:none;fill-rule:evenodd;"
d="M 6.075000,4.925000
6.086418,4.867597
6.118934,4.818934
6.167597,4.786418
6.225000,4.775000
6.525000,4.775000
6.582403,4.786418
6.631066,4.818934
6.663582,4.867597
6.675000,4.925000
6.675000,6.425000
6.663582,6.482403
6.631066,6.531066
6.582403,6.563582
6.525000,6.575000
6.225000,6.575000
6.167597,6.563582
6.118934,6.531066
6.086418,6.482403
6.075000,6.425000
Z" /> 
<path style="fill:#C83434; fill-opacity:1.000000; stroke:none;fill-rule:evenodd;"
d="M 0.275000,5.425000
0.286418,5.367597
0.318934,5.318934
0.367597,5.286418
0.425000,5.275000
0.725000,5.275000
0.782403,5.286418
0.831066,5.318934
0.863582,5.367597
0.875000,5.425000
0.875000,6.925000
0.863582,6.982403
0.831066,7.031066
0.782403,7.063582
0.725000,7.075000
0.425000,7.075000
0.367597,7.063582
0.318934,7.031066
0.286418,6.982403
0.275000,6.925000
Z" /> 
<path style="fill:#C83434; fill-opacity:1.000000; stroke:none;fill-rule:evenodd;"
d="M 6.075000,5.425000
6.086418,5.367597
6.118934,5.318934
6.167597,5.286418
6.225000,5.275000
6.525000,5.275000
6.582403,5.286418
6.631066,5.318934
6.663582,5.367597
6.675000,5.425000
6.675000,6.925000
6.663582,6.982403
6.631066,7.031066
6.582403,7.063582
6.525000,7.075000
6.225000,7.075000
6.167597,7.063582
6.118934,7.031066
6.086418,6.982403
6.075000,6.925000
Z" /> 
<path style="fill:#C83434; fill-opacity:1.000000; stroke:none;fill-rule:evenodd;"
d="M 0.275000,5.925000
0.286418,5.867597
0.318934,5.818934
0.367597,5.786418
0.425000,5.775000
0.725000,5.775000
0.782403,5.786418
0.831066,5.818934
0.863582,5.867597
0.875000,5.925000
0.875000,7.425000
0.863582,7.482403
0.831066,7.531066
0.782403,7.563582
0.725000,7.575000
0.425000,7.575000
0.367597,7.563582
0.318934,7.531066
0.286418,7.482403
0.275000,7.425000
Z" /> 
<path style="fill:#C83434; fill-opacity:1.000000; stroke:none;fill-rule:evenodd;"
d="M 6.075000,5.925000
6.086418,5.867597
6.118934,5.818934
6.167597,5.786418
6.225000,5.775000
6.525000,5.775000
6.582403,5.786418
6.631066,5.818934
6.663582,5.867597
6.675000,5.925000
6.675000,7.425000
6.663582,7.482403
6.631066,7.531066
6.582403,7.563582
6.525000,7.575000
6.225000,7.575000
6.167597,7.563582
6.118934,7.531066
6.086418,7.482403
6.075000,7.425000
Z" /> 
<path style="fill:#C83434; fill-opacity:1.000000; stroke:none;fill-rule:evenodd;"
d="M 0.275000,6.425000
0.286418,6.367597
0.318934,6.318934
0.367597,6.286418
0.425000,6.275000
0.725000,6.275000
0.782403,6.286418
0.831066,6.318934
0.863582,6.367597
0.875000,6.425000
0.875000,7.925000
0.863582,7.982403
0.831066,8.031066
0.782403,8.063582
0.725000,8.075000
0.425000,8.075000
0.367597,8.063582
0.318934,8.031066
0.286418,7.982403
0.275000,7.925000
Z" /> 
<path style="fill:#C83434; fill-opacity:1.000000; stroke:none;fill-rule:evenodd;"
d="M 6.075000,6.425000
6.086418,6.367597
6.118934,6.318934
6.167597,6.286418
6.225000,6.275000
6.525000,6.275000
6.582403,6.286418
6.631066,6.318934
6.663582,6.367597
6.675000,6.425000
6.675000,7.925000
6.663582,7.982403
6.631066,8.031066
6.582403,8.063582
6.525000,8.075000
6.225000,8.075000
6.167597,8.063582
6.118934,8.031066
6.086418,7.982403
6.075000,7.925000
Z" /> 
<path style="fill:#C83434; fill-opacity:1.000000; stroke:none;fill-rule:evenodd;"
d="M 0.275000,6.925000
0.286418,6.867597
0.318934,6.818934
0.367597,6.786418
0.425000,6.775000
0.725000,6.775000
0.782403,6.786418
0.831066,6.818934
0.863582,6.867597
0.875000,6.925000
0.875000,8.425000
0.863582,8.482403
0.831066,8.531066
0.782403,8.563582
0.725000,8.575000
0.425000,8.575000
0.367597,8.563582
0.318934,8.531066
0.286418,8.482403
0.275000,8.425000
Z" /> 
<path style="fill:#C83434; fill-opacity:1.000000; stroke:none;fill-rule:evenodd;"
d="M 6.075000,6.925000
6.086418,6.867597
6.118934,6.818934
6.167597,6.786418
6.225000,6.775000
6.525000,6.775000
6.582403,6.786418
6.631066,6.818934
6.663582,6.867597
6.675000,6.925000
6.675000,8.425000
6.663582,8.482403
6.631066,8.531066
6.582403,8.563582
6.525000,8.575000
6.225000,8.575000
6.167597,8.563582
6.118934,8.531066
6.086418,8.482403
6.075000,8.425000
Z" /> 
<path style="fill:#C83434; fill-opacity:1.000000; stroke:none;fill-rule:evenodd;"
d="M 0.275000,7.425000
0.286418,7.367597
0.318934,7.318934
0.367597,7.286418
0.425000,7.275000
0.725000,7.275000
0.782403,7.286418
0.831066,7.318934
0.863582,7.367597
0.875000,7.425000
0.875000,8.925000
0.863582,8.982403
0.831066,9.031066
0.782403,9.063582
0.725000,9.075000
0.425000,9.075000
0.367597,9.063582
0.318934,9.031066
0.286418,8.982403
0.275000,8.925000
Z" /> 
<path style="fill:#C83434; fill-opacity:1.000000; stroke:none;fill-rule:evenodd;"
d="M 6.075000,7.425000
6.086418,7.367597
6.118934,7.318934
6.167597,7.286418
6.225000,7.275000
6.525000,7.275000
6.582403,7.286418
6.631066,7.318934
6.663582,7.367597
6.675000,7.425000
6.675000,8.925000
6.663582,8.982403
6.631066,9.031066
6.582403,9.063582
6.525000,9.075000
6.225000,9.075000
6.167597,9.063582
6.118934,9.031066
6.086418,8.982403
6.075000,8.925000
Z" /> 
<path style="fill:#C83434; fill-opacity:1.000000; stroke:none;fill-rule:evenodd;"
d="M 0.275000,7.925000
0.286418,7.867597
0.318934,7.818934
0.367597,7.786418
0.425000,7.775000
0.725000,7.775000
0.782403,7.786418
0.831066,7.818934
0.863582,7.867597
0.875000,7.925000
0.875000,9.425000
0.863582,9.482403
0.831066,9.531066
0.782403,9.563582
0.725000,9.575000
0.425000,9.575000
0.367597,9.563582
0.318934,9.531066
0.286418,9.482403
0.275000,9.425000
Z" /> 
<path style="fill:#C83434; fill-opacity:1.000000; stroke:none;fill-rule:evenodd;"
d="M 6.075000,7.925000
6.086418,7.867597
6.118934,7.818934
6.167597,7.786418
6.225000,7.775000
6.525000,7.775000
6.582403,7.786418
6.631066,7.818934
6.663582,7.867597
6.675000,7.925000
6.675000,9.425000
6.663582,9.482403
6.631066,9.531066
6.582403,9.563582
6.525000,9.575000
6.225000,9.575000
6.167597,9.563582
6.118934,9.531066
6.086418,9.482403
6.075000,9.425000
Z" /> 
<path style="fill:#C83434; fill-opacity:1.000000; stroke:none;fill-rule:evenodd;"
d="M 1.725000,4.050000
1.733010,3.931875
1.778673,3.748259
1.862741,3.578753
1.981282,3.431282
2.128753,3.312741
2.298259,3.228673
2.481875,3.183010
2.600000,3.175000
4.350000,3.175000
4.468125,3.183010
4.651741,3.228673
4.821247,3.312741
4.968718,3.431282
5.087259,3.578753
5.171327,3.748259
5.216990,3.931875
5.225000,4.050000
5.225000,5.800000
5.216990,5.918125
5.171327,6.101741
5.087259,6.271247
4.968718,6.418718
4.821247,6.537259
4.651741,6.621327
4.468125,6.666990
4.350000,6.675000
2.600000,6.675000
2.481875,6.666990
2.298259,6.621327
2.128753,6.537259
1.981282,6.418718
1.862741,6.271247
1.778673,6.101741
1.733010,5.918125
1.725000,5.800000
Z" /> 
<path style="fill:#D864FF; fill-opacity:0.400000; stroke:none;fill-rule:evenodd;"
d="M 0.275000,0.425000
0.286418,0.367597
0.318934,0.318934
0.367597,0.286418
0.425000,0.275000
0.725000,0.275000
0.782403,0.286418
0.831066,0.318934
0.863582,0.367597
0.875000,0.425000
0.875000,1.925000
0.863582,1.982403
0.831066,2.031066
0.782403,2.063582
0.725000,2.075000
0.425000,2.075000
0.367597,2.063582
0.318934,2.031066
0.286418,1.982403
0.275000,1.925000
Z" /> 
<path style="fill:#D864FF; fill-opacity:0.400000; stroke:none;fill-rule:evenodd;"
d="M 6.075000,0.425000
6.086418,0.367597
6.118934,0.318934
6.167597,0.286418
6.225000,0.275000
6.525000,0.275000
6.582403,0.286418
6.631066,0.318934
6.663582,0.367597
6.675000,0.425000
6.675000,1.925000
6.663582,1.982403
6.631066,2.031066
6.582403,2.063582
6.525000,2.075000
6.225000,2.075000
6.167597,2.063582
6.118934,2.031066
6.086418,1.982403
6.075000,1.925000
Z" /> 
<path style="fill:#D864FF; fill-opacity:0.400000; stroke:none;fill-rule:evenodd;"
d="M 0.275000,0.925000
0.286418,0.867597
0.318934,0.818934
0.367597,0.786418
0.425000,0.775000
0.725000,0.775000
0.782403,0.786418
0.831066,0.818934
0.863582,0.867597
0.875000,0.925000
0.875000,2.425000
0.863582,2.482403
0.831066,2.531066
0.782403,2.563582
0.725000,2.575000
0.425000,2.575000
0.367597,2.563582
0.318934,2.531066
0.286418,2.482403
0.275000,2.425000
Z" /> 
<path style="fill:#D864FF; fill-opacity:0.400000; stroke:none;fill-rule:evenodd;"
d="M 6.075000,0.925000
6.086418,0.867597
6.118934,0.818934
6.167597,0.786418
6.225000,0.775000
6.525000,0.775000
6.582403,0.786418
6.631066,0.818934
6.663582,0.867597
6.675000,0.925000
6.675000,2.425000
6.663582,2.482403
6.631066,2.531066
6.582403,2.563582
6.525000,2.575000
6.225000,2.575000
6.167597,2.563582
6.118934,2.531066
6.086418,2.482403
6.075000,2.425000
Z" /> 
<path style="fill:#D864FF; fill-opacity:0.400000; stroke:none;fill-rule:evenodd;"
d="M 0.275000,1.425000
0.286418,1.367597
0.318934,1.318934
0.367597,1.286418
0.425000,1.275000
0.725000,1.275000
0.782403,1.286418
0.831066,1.318934
0.863582,1.367597
0.875000,1.425000
0.875000,2.925000
0.863582,2.982403
0.831066,3.031066
0.782403,3.063582
0.725000,3.075000
0.425000,3.075000
0.367597,3.063582
0.318934,3.031066
0.286418,2.982403
0.275000,2.925000
Z" /> 
<path style="fill:#D864FF; fill-opacity:0.400000; stroke:none;fill-rule:evenodd;"
d="M 6.075000,1.425000
6.086418,1.367597
6.118934,1.318934
6.167597,1.286418
6.225000,1.275000
6.525000,1.275000
6.582403,1.286418
6.631066,1.318934
6.663582,1.367597
6.675000,1.425000
6.675000,2.925000
6.663582,2.982403
6.631066,3.031066
6.582403,3.063582
6.525000,3.075000
6.225000,3.075000
6.167597,3.063582
6.118934,3.031066
6.086418,2.982403
6.075000,2.925000
Z" /> 
<path style="fill:#D864FF; fill-opacity:0.400000; stroke:none;fill-rule:evenodd;"
d="M 0.275000,1.925000
0.286418,1.867597
0.318934,1.818934
0.367597,1.786418
0.425000,1.775000
0.725000,1.775000
0.782403,1.786418
0.831066,1.818934
0.863582,1.867597
0.875000,1.925000
0.875000,3.425000
0.863582,3.482403
0.831066,3.531066
0.782403,3.563582
0.725000,3.575000
0.425000,3.575000
0.367597,3.563582
0.318934,3.531066
0.286418,3.482403
0.275000,3.425000
Z" /> 
<path style="fill:#D864FF; fill-opacity:0.400000; stroke:none;fill-rule:evenodd;"
d="M 6.075000,1.925000
6.086418,1.867597
6.118934,1.818934
6.167597,1.786418
6.225000,1.775000
6.525000,1.775000
6.582403,1.786418
6.631066,1.818934
6.663582,1.867597
6.675000,1.925000
6.675000,3.425000
6.663582,3.482403
6.631066,3.531066
6.582403,3.563582
6.525000,3.575000
6.225000,3.575000
6.167597,3.563582
6.118934,3.531066
6.086418,3.482403
6.075000,3.425000
Z" /> 
<path style="fill:#D864FF; fill-opacity:0.400000; stroke:none;fill-rule:evenodd;"
d="M 0.275000,2.425000
0.286418,2.367597
0.318934,2.318934
0.367597,2.286418
0.425000,2.275000
0.725000,2.275000
0.782403,2.286418
0.831066,2.318934
0.863582,2.367597
0.875000,2.425000
0.875000,3.925000
0.863582,3.982403
0.831066,4.031066
0.782403,4.063582
0.725000,4.075000
0.425000,4.075000
0.367597,4.063582
0.318934,4.031066
0.286418,3.982403
0.275000,3.925000
Z" /> 
<path style="fill:#D864FF; fill-opacity:0.400000; stroke:none;fill-rule:evenodd;"
d="M 6.075000,2.425000
6.086418,2.367597
6.118934,2.318934
6.167597,2.286418
6.225000,2.275000
6.525000,2.275000
6.582403,2.286418
6.631066,2.318934
6.663582,2.367597
6.675000,2.425000
6.675000,3.925000
6.663582,3.982403
6.631066,4.031066
6.582403,4.063582
6.525000,4.075000
6.225000,4.075000
6.167597,4.063582
6.118934,4.031066
6.086418,3.982403
6.075000,3.925000
Z" /> 
<path style="fill:#D864FF; fill-opacity:0.400000; stroke:none;fill-rule:evenodd;"
d="M 0.275000,2.925000
0.286418,2.867597
0.318934,2.818934
0.367597,2.786418
0.425000,2.775000
0.725000,2.775000
0.782403,2.786418
0.831066,2.818934
0.863582,2.867597
0.875000,2.925000
0.875000,4.425000
0.863582,4.482403
0.831066,4.531066
0.782403,4.563582
0.725000,4.575000
0.425000,4.575000
0.367597,4.563582
0.318934,4.531066
0.286418,4.482403
0.275000,4.425000
Z" /> 
<path style="fill:#D864FF; fill-opacity:0.400000; stroke:none;fill-rule:evenodd;"
d="M 6.075000,2.925000
6.086418,2.867597
6.118934,2.818934
6.167597,2.786418
6.225000,2.775000
6.525000,2.775000
6.582403,2.786418
6.631066,2.818934
6.663582,2.867597
6.675000,2.925000
6.675000,4.425000
6.663582,4.482403
6.631066,4.531066
6.582403,4.563582
6.525000,4.575000
6.225000,4.575000
6.167597,4.563582
6.118934,4.531066
6.086418,4.482403
6.075000,4.425000
Z" /> 
<path style="fill:#D864FF; fill-opacity:0.400000; stroke:none;fill-rule:evenodd;"
d="M 0.275000,3.425000
0.286418,3.367597
0.318934,3.318934
0.367597,3.286418
0.425000,3.275000
0.725000,3.275000
0.782403,3.286418
0.831066,3.318934
0.863582,3.367597
0.875000,3.425000
0.875000,4.925000
0.863582,4.982403
0.831066,5.031066
0.782403,5.063582
0.725000,5.075000
0.425000,5.075000
0.367597,5.063582
0.318934,5.031066
0.286418,4.982403
0.275000,4.925000
Z" /> 
<path style="fill:#D864FF; fill-opacity:0.400000; stroke:none;fill-rule:evenodd;"
d="M 6.075000,3.425000
6.086418,3.367597
6.118934,3.318934
6.167597,3.286418
6.225000,3.275000
6.525000,3.275000
6.582403,3.286418
6.631066,3.318934
6.663582,3.367597
6.675000,3.425000
6.675000,4.925000
6.663582,4.982403
6.631066,5.031066
6.582403,5.063582
6.525000,5.075000
6.225000,5.075000
6.167597,5.063582
6.118934,5.031066
6.086418,4.982403
6.075000,4.925000
Z" /> 
<path style="fill:#D864FF; fill-opacity:0.400000; stroke:none;fill-rule:evenodd;"
d="M 0.275000,3.925000
0.286418,3.867597
0.318934,3.818934
0.367597,3.786418
0.425000,3.775000
0.725000,3.775000
0.782403,3.786418
0.831066,3.818934
0.863582,3.867597
0.875000,3.925000
0.875000,5.425000
0.863582,5.482403
0.831066,5.531066
0.782403,5.563582
0.725000,5.575000
0.425000,5.575000
0.367597,5.563582
0.318934,5.531066
0.286418,5.482403
0.275000,5.425000
Z" /> 
<path style="fill:#D864FF; fill-opacity:0.400000; stroke:none;fill-rule:evenodd;"
d="M 6.075000,3.925000
6.086418,3.867597
6.118934,3.818934
6.167597,3.786418
6.225000,3.775000
6.525000,3.775000
6.582403,3.786418
6.631066,3.818934
6.663582,3.867597
6.675000,3.925000
6.675000,5.425000
6.663582,5.482403
6.631066,5.531066
6.582403,5.563582
6.525000,5.575000
6.225000,5.575000
6.167597,5.563582
6.118934,5.531066
6.086418,5.482403
6.075000,5.425000
Z" /> 
<path style="fill:#D864FF; fill-opacity:0.400000; stroke:none;fill-rule:evenodd;"
d="M 0.275000,4.425000
0.286418,4.367597
0.318934,4.318934
0.367597,4.286418
0.425000,4.275000
0.725000,4.275000
0.782403,4.286418
0.831066,4.318934
0.863582,4.367597
0.875000,4.425000
0.875000,5.925000
0.863582,5.982403
0.831066,6.031066
0.782403,6.063582
0.725000,6.075000
0.425000,6.075000
0.367597,6.063582
0.318934,6.031066
0.286418,5.982403
0.275000,5.925000
Z" /> 
<path style="fill:#D864FF; fill-opacity:0.400000; stroke:none;fill-rule:evenodd;"
d="M 6.075000,4.425000
6.086418,4.367597
6.118934,4.318934
6.167597,4.286418
6.225000,4.275000
6.525000,4.275000
6.582403,4.286418
6.631066,4.318934
6.663582,4.367597
6.675000,4.425000
6.675000,5.925000
6.663582,5.982403
6.631066,6.031066
6.582403,6.063582
6.525000,6.075000
6.225000,6.075000
6.167597,6.063582
6.118934,6.031066
6.086418,5.982403
6.075000,5.925000
Z" /> 
<path style="fill:#D864FF; fill-opacity:0.400000; stroke:none;fill-rule:evenodd;"
d="M 0.275000,4.925000
0.286418,4.867597
0.318934,4.818934
0.367597,4.786418
0.425000,4.775000
0.725000,4.775000
0.782403,4.786418
0.831066,4.818934
0.863582,4.867597
0.875000,4.925000
0.875000,6.425000
0.863582,6.482403
0.831066,6.531066
0.782403,6.563582
0.725000,6.575000
0.425000,6.575000
0.367597,6.563582
0.318934,6.531066
0.286418,6.482403
0.275000,6.425000
Z" /> 
<path style="fill:#D864FF; fill-opacity:0.400000; stroke:none;fill-rule:evenodd;"
d="M 6.075000,4.925000
6.086418,4.867597
6.118934,4.818934
6.167597,4.786418
6.225000,4.775000
6.525000,4.775000
6.582403,4.786418
6.631066,4.818934
6.663582,4.867597
6.675000,4.925000
6.675000,6.425000
6.663582,6.482403
6.631066,6.531066
6.582403,6.563582
6.525000,6.575000
6.225000,6.575000
6.167597,6.563582
6.118934,6.531066
6.086418,6.482403
6.075000,6.425000
Z" /> 
<path style="fill:#D864FF; fill-opacity:0.400000; stroke:none;fill-rule:evenodd;"
d="M 0.275000,5.425000
0.286418,5.367597
0.318934,5.318934
0.367597,5.286418
0.425000,5.275000
0.725000,5.275000
0.782403,5.286418
0.831066,5.318934
0.863582,5.367597
0.875000,5.425000
0.875000,6.925000
0.863582,6.982403
0.831066,7.031066
0.782403,7.063582
0.725000,7.075000
0.425000,7.075000
0.367597,7.063582
0.318934,7.031066
0.286418,6.982403
0.275000,6.925000
Z" /> 
<path style="fill:#D864FF; fill-opacity:0.400000; stroke:none;fill-rule:evenodd;"
d="M 6.075000,5.425000
6.086418,5.367597
6.118934,5.318934
6.167597,5.286418
6.225000,5.275000
6.525000,5.275000
6.582403,5.286418
6.631066,5.318934
6.663582,5.367597
6.675000,5.425000
6.675000,6.925000
6.663582,6.982403
6.631066,7.031066
6.582403,7.063582
6.525000,7.075000
6.225000,7.075000
6.167597,7.063582
6.118934,7.031066
6.086418,6.982403
6.075000,6.925000
Z" /> 
<path style="fill:#D864FF; fill-opacity:0.400000; stroke:none;fill-rule:evenodd;"
d="M 0.275000,5.925000
0.286418,5.867597
0.318934,5.818934
0.367597,5.786418
0.425000,5.775000
0.725000,5.775000
0.782403,5.786418
0.831066,5.818934
0.863582,5.867597
0.875000,5.925000
0.875000,7.425000
0.863582,7.482403
0.831066,7.531066
0.782403,7.563582
0.725000,7.575000
0.425000,7.575000
0.367597,7.563582
0.318934,7.531066
0.286418,7.482403
0.275000,7.425000
Z" /> 
<path style="fill:#D864FF; fill-opacity:0.400000; stroke:none;fill-rule:evenodd;"
d="M 6.075000,5.925000
6.086418,5.867597
6.118934,5.818934
6.167597,5.786418
6.225000,5.775000
6.525000,5.775000
6.582403,5.786418
6.631066,5.818934
6.663582,5.867597
6.675000,5.925000
6.675000,7.425000
6.663582,7.482403
6.631066,7.531066
6.582403,7.563582
6.525000,7.575000
6.225000,7.575000
6.167597,7.563582
6.118934,7.531066
6.086418,7.482403
6.075000,7.425000
Z" /> 
<path style="fill:#D864FF; fill-opacity:0.400000; stroke:none;fill-rule:evenodd;"
d="M 0.275000,6.425000
0.286418,6.367597
0.318934,6.318934
0.367597,6.286418
0.425000,6.275000
0.725000,6.275000
0.782403,6.286418
0.831066,6.318934
0.863582,6.367597
0.875000,6.425000
0.875000,7.925000
0.863582,7.982403
0.831066,8.031066
0.782403,8.063582
0.725000,8.075000
0.425000,8.075000
0.367597,8.063582
0.318934,8.031066
0.286418,7.982403
0.275000,7.925000
Z" /> 
<path style="fill:#D864FF; fill-opacity:0.400000; stroke:none;fill-rule:evenodd;"
d="M 6.075000,6.425000
6.086418,6.367597
6.118934,6.318934
6.167597,6.286418
6.225000,6.275000
6.525000,6.275000
6.582403,6.286418
6.631066,6.318934
6.663582,6.367597
6.675000,6.425000
6.675000,7.925000
6.663582,7.982403
6.631066,8.031066
6.582403,8.063582
6.525000,8.075000
6.225000,8.075000
6.167597,8.063582
6.118934,8.031066
6.086418,7.982403
6.075000,7.925000
Z" /> 
<path style="fill:#D864FF; fill-opacity:0.400000; stroke:none;fill-rule:evenodd;"
d="M 0.275000,6.925000
0.286418,6.867597
0.318934,6.818934
0.367597,6.786418
0.425000,6.775000
0.725000,6.775000
0.782403,6.786418
0.831066,6.818934
0.863582,6.867597
0.875000,6.925000
0.875000,8.425000
0.863582,8.482403
0.831066,8.531066
0.782403,8.563582
0.725000,8.575000
0.425000,8.575000
0.367597,8.563582
0.318934,8.531066
0.286418,8.482403
0.275000,8.425000
Z" /> 
<path style="fill:#D864FF; fill-opacity:0.400000; stroke:none;fill-rule:evenodd;"
d="M 6.075000,6.925000
6.086418,6.867597
6.118934,6.818934
6.167597,6.786418
6.225000,6.775000
6.525000,6.775000
6.582403,6.786418
6.631066,6.818934
6.663582,6.867597
6.675000,6.925000
6.675000,8.425000
6.663582,8.482403
6.631066,8.531066
6.582403,8.563582
6.525000,8.575000
6.225000,8.575000
6.167597,8.563582
6.118934,8.531066
6.086418,8.482403
6.075000,8.425000
Z" /> 
<path style="fill:#D864FF; fill-opacity:0.400000; stroke:none;fill-rule:evenodd;"
d="M 0.275000,7.425000
0.286418,7.367597
0.318934,7.318934
0.367597,7.286418
0.425000,7.275000
0.725000,7.275000
0.782403,7.286418
0.831066,7.318934
0.863582,7.367597
0.875000,7.425000
0.875000,8.925000
0.863582,8.982403
0.831066,9.031066
0.782403,9.063582
0.725000,9.075000
0.425000,9.075000
0.367597,9.063582
0.318934,9.031066
0.286418,8.982403
0.275000,8.925000
Z" /> 
<path style="fill:#D864FF; fill-opacity:0.400000; stroke:none;fill-rule:evenodd;"
d="M 6.075000,7.425000
6.086418,7.367597
6.118934,7.318934
6.167597,7.286418
6.225000,7.275000
6.525000,7.275000
6.582403,7.286418
6.631066,7.318934
6.663582,7.367597
6.675000,7.425000
6.675000,8.925000
6.663582,8.982403
6.631066,9.031066
6.582403,9.063582
6.525000,9.075000
6.225000,9.075000
6.167597,9.063582
6.118934,9.031066
6.086418,8.982403
6.075000,8.925000
Z" /> 
<path style="fill:#D864FF; fill-opacity:0.400000; stroke:none;fill-rule:evenodd;"
d="M 0.275000,7.925000
0.286418,7.867597
0.318934,7.818934
0.367597,7.786418
0.425000,7.775000
0.725000,7.775000
0.782403,7.786418
0.831066,7.818934
0.863582,7.867597
0.875000,7.925000
0.875000,9.425000
0.863582,9.482403
0.831066,9.531066
0.782403,9.563582
0.725000,9.575000
0.425000,9.575000
0.367597,9.563582
0.318934,9.531066
0.286418,9.482403
0.275000,9.425000
Z" /> 
<path style="fill:#D864FF; fill-opacity:0.400000; stroke:none;fill-rule:evenodd;"
d="M 6.075000,7.925000
6.086418,7.867597
6.118934,7.818934
6.167597,7.786418
6.225000,7.775000
6.525000,7.775000
6.582403,7.786418
6.631066,7.818934
6.663582,7.867597
6.675000,7.925000
6.675000,9.425000
6.663582,9.482403
6.631066,9.531066
6.582403,9.563582
6.525000,9.575000
6.225000,9.575000
6.167597,9.563582
6.118934,9.531066
6.086418,9.482403
6.075000,9.425000
Z" /> 
<path style="fill:#D864FF; fill-opacity:0.400000; stroke:none;fill-rule:evenodd;"
d="M 1.725000,4.050000
1.733010,3.931875
1.778673,3.748259
1.862741,3.578753
1.981282,3.431282
2.128753,3.312741
2.298259,3.228673
2.481875,3.183010
2.600000,3.175000
4.350000,3.175000
4.468125,3.183010
4.651741,3.228673
4.821247,3.312741
4.968718,3.431282
5.087259,3.578753
5.171327,3.748259
5.216990,3.931875
5.225000,4.050000
5.225000,5.800000
5.216990,5.918125
5.171327,6.101741
5.087259,6.271247
4.968718,6.418718
4.821247,6.537259
4.651741,6.621327
4.468125,6.666990
4.350000,6.675000
2.600000,6.675000
2.481875,6.666990
2.298259,6.621327
2.128753,6.537259
1.981282,6.418718
1.862741,6.271247
1.778673,6.101741
1.733010,5.918125
1.725000,5.800000
Z" /> 
<path style="fill:#B4A09A; fill-opacity:0.900000; stroke:none;fill-rule:evenodd;"
d="M 0.275000,0.425000
0.286418,0.367597
0.318934,0.318934
0.367597,0.286418
0.425000,0.275000
0.725000,0.275000
0.782403,0.286418
0.831066,0.318934
0.863582,0.367597
0.875000,0.425000
0.875000,1.925000
0.863582,1.982403
0.831066,2.031066
0.782403,2.063582
0.725000,2.075000
0.425000,2.075000
0.367597,2.063582
0.318934,2.031066
0.286418,1.982403
0.275000,1.925000
Z" /> 
<path style="fill:#B4A09A; fill-opacity:0.900000; stroke:none;fill-rule:evenodd;"
d="M 6.075000,0.425000
6.086418,0.367597
6.118934,0.318934
6.167597,0.286418
6.225000,0.275000
6.525000,0.275000
6.582403,0.286418
6.631066,0.318934
6.663582,0.367597
6.675000,0.425000
6.675000,1.925000
6.663582,1.982403
6.631066,2.031066
6.582403,2.063582
6.525000,2.075000
6.225000,2.075000
6.167597,2.063582
6.118934,2.031066
6.086418,1.982403
6.075000,1.925000
Z" /> 
<path style="fill:#B4A09A; fill-opacity:0.900000; stroke:none;fill-rule:evenodd;"
d="M 0.275000,0.925000
0.286418,0.867597
0.318934,0.818934
0.367597,0.786418
0.425000,0.775000
0.725000,0.775000
0.782403,0.786418
0.831066,0.818934
0.863582,0.867597
0.875000,0.925000
0.875000,2.425000
0.863582,2.482403
0.831066,2.531066
0.782403,2.563582
0.725000,2.575000
0.425000,2.575000
0.367597,2.563582
0.318934,2.531066
0.286418,2.482403
0.275000,2.425000
Z" /> 
<path style="fill:#B4A09A; fill-opacity:0.900000; stroke:none;fill-rule:evenodd;"
d="M 6.075000,0.925000
6.086418,0.867597
6.118934,0.818934
6.167597,0.786418
6.225000,0.775000
6.525000,0.775000
6.582403,0.786418
6.631066,0.818934
6.663582,0.867597
6.675000,0.925000
6.675000,2.425000
6.663582,2.482403
6.631066,2.531066
6.582403,2.563582
6.525000,2.575000
6.225000,2.575000
6.167597,2.563582
6.118934,2.531066
6.086418,2.482403
6.075000,2.425000
Z" /> 
<path style="fill:#B4A09A; fill-opacity:0.900000; stroke:none;fill-rule:evenodd;"
d="M 0.275000,1.425000
0.286418,1.367597
0.318934,1.318934
0.367597,1.286418
0.425000,1.275000
0.725000,1.275000
0.782403,1.286418
0.831066,1.318934
0.863582,1.367597
0.875000,1.425000
0.875000,2.925000
0.863582,2.982403
0.831066,3.031066
0.782403,3.063582
0.725000,3.075000
0.425000,3.075000
0.367597,3.063582
0.318934,3.031066
0.286418,2.982403
0.275000,2.925000
Z" /> 
<path style="fill:#B4A09A; fill-opacity:0.900000; stroke:none;fill-rule:evenodd;"
d="M 6.075000,1.425000
6.086418,1.367597
6.118934,1.318934
6.167597,1.286418
6.225000,1.275000
6.525000,1.275000
6.582403,1.286418
6.631066,1.318934
6.663582,1.367597
6.675000,1.425000
6.675000,2.925000
6.663582,2.982403
6.631066,3.031066
6.582403,3.063582
6.525000,3.075000
6.225000,3.075000
6.167597,3.063582
6.118934,3.031066
6.086418,2.982403
6.075000,2.925000
Z" /> 
<path style="fill:#B4A09A; fill-opacity:0.900000; stroke:none;fill-rule:evenodd;"
d="M 0.275000,1.925000
0.286418,1.867597
0.318934,1.818934
0.367597,1.786418
0.425000,1.775000
0.725000,1.775000
0.782403,1.786418
0.831066,1.818934
0.863582,1.867597
0.875000,1.925000
0.875000,3.425000
0.863582,3.482403
0.831066,3.531066
0.782403,3.563582
0.725000,3.575000
0.425000,3.575000
0.367597,3.563582
0.318934,3.531066
0.286418,3.482403
0.275000,3.425000
Z" /> 
<path style="fill:#B4A09A; fill-opacity:0.900000; stroke:none;fill-rule:evenodd;"
d="M 6.075000,1.925000
6.086418,1.867597
6.118934,1.818934
6.167597,1.786418
6.225000,1.775000
6.525000,1.775000
6.582403,1.786418
6.631066,1.818934
6.663582,1.867597
6.675000,1.925000
6.675000,3.425000
6.663582,3.482403
6.631066,3.531066
6.582403,3.563582
6.525000,3.575000
6.225000,3.575000
6.167597,3.563582
6.118934,3.531066
6.086418,3.482403
6.075000,3.425000
Z" /> 
<path style="fill:#B4A09A; fill-opacity:0.900000; stroke:none;fill-rule:evenodd;"
d="M 0.275000,2.425000
0.286418,2.367597
0.318934,2.318934
0.367597,2.286418
0.425000,2.275000
0.725000,2.275000
0.782403,2.286418
0.831066,2.318934
0.863582,2.367597
0.875000,2.425000
0.875000,3.925000
0.863582,3.982403
0.831066,4.031066
0.782403,4.063582
0.725000,4.075000
0.425000,4.075000
0.367597,4.063582
0.318934,4.031066
0.286418,3.982403
0.275000,3.925000
Z" /> 
<path style="fill:#B4A09A; fill-opacity:0.900000; stroke:none;fill-rule:evenodd;"
d="M 6.075000,2.425000
6.086418,2.367597
6.118934,2.318934
6.167597,2.286418
6.225000,2.275000
6.525000,2.275000
6.582403,2.286418
6.631066,2.318934
6.663582,2.367597
6.675000,2.425000
6.675000,3.925000
6.663582,3.982403
6.631066,4.031066
6.582403,4.063582
6.525000,4.075000
6.225000,4.075000
6.167597,4.063582
6.118934,4.031066
6.086418,3.982403
6.075000,3.925000
Z" /> 
<path style="fill:#B4A09A; fill-opacity:0.900000; stroke:none;fill-rule:evenodd;"
d="M 0.275000,2.925000
0.286418,2.867597
0.318934,2.818934
0.367597,2.786418
0.425000,2.775000
0.725000,2.775000
0.782403,2.786418
0.831066,2.818934
0.863582,2.867597
0.875000,2.925000
0.875000,4.425000
0.863582,4.482403
0.831066,4.531066
0.782403,4.563582
0.725000,4.575000
0.425000,4.575000
0.367597,4.563582
0.318934,4.531066
0.286418,4.482403
0.275000,4.425000
Z" /> 
<path style="fill:#B4A09A; fill-opacity:0.900000; stroke:none;fill-rule:evenodd;"
d="M 6.075000,2.925000
6.086418,2.867597
6.118934,2.818934
6.167597,2.786418
6.225000,2.775000
6.525000,2.775000
6.582403,2.786418
6.631066,2.818934
6.663582,2.867597
6.675000,2.925000
6.675000,4.425000
6.663582,4.482403
6.631066,4.531066
6.582403,4.563582
6.525000,4.575000
6.225000,4.575000
6.167597,4.563582
6.118934,4.531066
6.086418,4.482403
6.075000,4.425000
Z" /> 
<path style="fill:#B4A09A; fill-opacity:0.900000; stroke:none;fill-rule:evenodd;"
d="M 0.275000,3.425000
0.286418,3.367597
0.318934,3.318934
0.367597,3.286418
0.425000,3.275000
0.725000,3.275000
0.782403,3.286418
0.831066,3.318934
0.863582,3.367597
0.875000,3.425000
0.875000,4.925000
0.863582,4.982403
0.831066,5.031066
0.782403,5.063582
0.725000,5.075000
0.425000,5.075000
0.367597,5.063582
0.318934,5.031066
0.286418,4.982403
0.275000,4.925000
Z" /> 
<path style="fill:#B4A09A; fill-opacity:0.900000; stroke:none;fill-rule:evenodd;"
d="M 6.075000,3.425000
6.086418,3.367597
6.118934,3.318934
6.167597,3.286418
6.225000,3.275000
6.525000,3.275000
6.582403,3.286418
6.631066,3.318934
6.663582,3.367597
6.675000,3.425000
6.675000,4.925000
6.663582,4.982403
6.631066,5.031066
6.582403,5.063582
6.525000,5.075000
6.225000,5.075000
6.167597,5.063582
6.118934,5.031066
6.086418,4.982403
6.075000,4.925000
Z" /> 
<path style="fill:#B4A09A; fill-opacity:0.900000; stroke:none;fill-rule:evenodd;"
d="M 0.275000,3.925000
0.286418,3.867597
0.318934,3.818934
0.367597,3.786418
0.425000,3.775000
0.725000,3.775000
0.782403,3.786418
0.831066,3.818934
0.863582,3.867597
0.875000,3.925000
0.875000,5.425000
0.863582,5.482403
0.831066,5.531066
0.782403,5.563582
0.725000,5.575000
0.425000,5.575000
0.367597,5.563582
0.318934,5.531066
0.286418,5.482403
0.275000,5.425000
Z" /> 
<path style="fill:#B4A09A; fill-opacity:0.900000; stroke:none;fill-rule:evenodd;"
d="M 6.075000,3.925000
6.086418,3.867597
6.118934,3.818934
6.167597,3.786418
6.225000,3.775000
6.525000,3.775000
6.582403,3.786418
6.631066,3.818934
6.663582,3.867597
6.675000,3.925000
6.675000,5.425000
6.663582,5.482403
6.631066,5.531066
6.582403,5.563582
6.525000,5.575000
6.225000,5.575000
6.167597,5.563582
6.118934,5.531066
6.086418,5.482403
6.075000,5.425000
Z" /> 
<path style="fill:#B4A09A; fill-opacity:0.900000; stroke:none;fill-rule:evenodd;"
d="M 0.275000,4.425000
0.286418,4.367597
0.318934,4.318934
0.367597,4.286418
0.425000,4.275000
0.725000,4.275000
0.782403,4.286418
0.831066,4.318934
0.863582,4.367597
0.875000,4.425000
0.875000,5.925000
0.863582,5.982403
0.831066,6.031066
0.782403,6.063582
0.725000,6.075000
0.425000,6.075000
0.367597,6.063582
0.318934,6.031066
0.286418,5.982403
0.275000,5.925000
Z" /> 
<path style="fill:#B4A09A; fill-opacity:0.900000; stroke:none;fill-rule:evenodd;"
d="M 6.075000,4.425000
6.086418,4.367597
6.118934,4.318934
6.167597,4.286418
6.225000,4.275000
6.525000,4.275000
6.582403,4.286418
6.631066,4.318934
6.663582,4.367597
6.675000,4.425000
6.675000,5.925000
6.663582,5.982403
6.631066,6.031066
6.582403,6.063582
6.525000,6.075000
6.225000,6.075000
6.167597,6.063582
6.118934,6.031066
6.086418,5.982403
6.075000,5.925000
Z" /> 
<path style="fill:#B4A09A; fill-opacity:0.900000; stroke:none;fill-rule:evenodd;"
d="M 0.275000,4.925000
0.286418,4.867597
0.318934,4.818934
0.367597,4.786418
0.425000,4.775000
0.725000,4.775000
0.782403,4.786418
0.831066,4.818934
0.863582,4.867597
0.875000,4.925000
0.875000,6.425000
0.863582,6.482403
0.831066,6.531066
0.782403,6.563582
0.725000,6.575000
0.425000,6.575000
0.367597,6.563582
0.318934,6.531066
0.286418,6.482403
0.275000,6.425000
Z" /> 
<path style="fill:#B4A09A; fill-opacity:0.900000; stroke:none;fill-rule:evenodd;"
d="M 6.075000,4.925000
6.086418,4.867597
6.118934,4.818934
6.167597,4.786418
6.225000,4.775000
6.525000,4.775000
6.582403,4.786418
6.631066,4.818934
6.663582,4.867597
6.675000,4.925000
6.675000,6.425000
6.663582,6.482403
6.631066,6.531066
6.582403,6.563582
6.525000,6.575000
6.225000,6.575000
6.167597,6.563582
6.118934,6.531066
6.086418,6.482403
6.075000,6.425000
Z" /> 
<path style="fill:#B4A09A; fill-opacity:0.900000; stroke:none;fill-rule:evenodd;"
d="M 0.275000,5.425000
0.286418,5.367597
0.318934,5.318934
0.367597,5.286418
0.425000,5.275000
0.725000,5.275000
0.782403,5.286418
0.831066,5.318934
0.863582,5.367597
0.875000,5.425000
0.875000,6.925000
0.863582,6.982403
0.831066,7.031066
0.782403,7.063582
0.725000,7.075000
0.425000,7.075000
0.367597,7.063582
0.318934,7.031066
0.286418,6.982403
0.275000,6.925000
Z" /> 
<path style="fill:#B4A09A; fill-opacity:0.900000; stroke:none;fill-rule:evenodd;"
d="M 6.075000,5.425000
6.086418,5.367597
6.118934,5.318934
6.167597,5.286418
6.225000,5.275000
6.525000,5.275000
6.582403,5.286418
6.631066,5.318934
6.663582,5.367597
6.675000,5.425000
6.675000,6.925000
6.663582,6.982403
6.631066,7.031066
6.582403,7.063582
6.525000,7.075000
6.225000,7.075000
6.167597,7.063582
6.118934,7.031066
6.086418,6.982403
6.075000,6.925000
Z" /> 
<path style="fill:#B4A09A; fill-opacity:0.900000; stroke:none;fill-rule:evenodd;"
d="M 0.275000,5.925000
0.286418,5.867597
0.318934,5.818934
0.367597,5.786418
0.425000,5.775000
0.725000,5.775000
0.782403,5.786418
0.831066,5.818934
0.863582,5.867597
0.875000,5.925000
0.875000,7.425000
0.863582,7.482403
0.831066,7.531066
0.782403,7.563582
0.725000,7.575000
0.425000,7.575000
0.367597,7.563582
0.318934,7.531066
0.286418,7.482403
0.275000,7.425000
Z" /> 
<path style="fill:#B4A09A; fill-opacity:0.900000; stroke:none;fill-rule:evenodd;"
d="M 6.075000,5.925000
6.086418,5.867597
6.118934,5.818934
6.167597,5.786418
6.225000,5.775000
6.525000,5.775000
6.582403,5.786418
6.631066,5.818934
6.663582,5.867597
6.675000,5.925000
6.675000,7.425000
6.663582,7.482403
6.631066,7.531066
6.582403,7.563582
6.525000,7.575000
6.225000,7.575000
6.167597,7.563582
6.118934,7.531066
6.086418,7.482403
6.075000,7.425000
Z" /> 
<path style="fill:#B4A09A; fill-opacity:0.900000; stroke:none;fill-rule:evenodd;"
d="M 0.275000,6.425000
0.286418,6.367597
0.318934,6.318934
0.367597,6.286418
0.425000,6.275000
0.725000,6.275000
0.782403,6.286418
0.831066,6.318934
0.863582,6.367597
0.875000,6.425000
0.875000,7.925000
0.863582,7.982403
0.831066,8.031066
0.782403,8.063582
0.725000,8.075000
0.425000,8.075000
0.367597,8.063582
0.318934,8.031066
0.286418,7.982403
0.275000,7.925000
Z" /> 
<path style="fill:#B4A09A; fill-opacity:0.900000; stroke:none;fill-rule:evenodd;"
d="M 6.075000,6.425000
6.086418,6.367597
6.118934,6.318934
6.167597,6.286418
6.225000,6.275000
6.525000,6.275000
6.582403,6.286418
6.631066,6.318934
6.663582,6.367597
6.675000,6.425000
6.675000,7.925000
6.663582,7.982403
6.631066,8.031066
6.582403,8.063582
6.525000,8.075000
6.225000,8.075000
6.167597,8.063582
6.118934,8.031066
6.086418,7.982403
6.075000,7.925000
Z" /> 
<path style="fill:#B4A09A; fill-opacity:0.900000; stroke:none;fill-rule:evenodd;"
d="M 0.275000,6.925000
0.286418,6.867597
0.318934,6.818934
0.367597,6.786418
0.425000,6.775000
0.725000,6.775000
0.782403,6.786418
0.831066,6.818934
0.863582,6.867597
0.875000,6.925000
0.875000,8.425000
0.863582,8.482403
0.831066,8.531066
0.782403,8.563582
0.725000,8.575000
0.425000,8.575000
0.367597,8.563582
0.318934,8.531066
0.286418,8.482403
0.275000,8.425000
Z" /> 
<path style="fill:#B4A09A; fill-opacity:0.900000; stroke:none;fill-rule:evenodd;"
d="M 6.075000,6.925000
6.086418,6.867597
6.118934,6.818934
6.167597,6.786418
6.225000,6.775000
6.525000,6.775000
6.582403,6.786418
6.631066,6.818934
6.663582,6.867597
6.675000,6.925000
6.675000,8.425000
6.663582,8.482403
6.631066,8.531066
6.582403,8.563582
6.525000,8.575000
6.225000,8.575000
6.167597,8.563582
6.118934,8.531066
6.086418,8.482403
6.075000,8.425000
Z" /> 
<path style="fill:#B4A09A; fill-opacity:0.900000; stroke:none;fill-rule:evenodd;"
d="M 0.275000,7.425000
0.286418,7.367597
0.318934,7.318934
0.367597,7.286418
0.425000,7.275000
0.725000,7.275000
0.782403,7.286418
0.831066,7.318934
0.863582,7.367597
0.875000,7.425000
0.875000,8.925000
0.863582,8.982403
0.831066,9.031066
0.782403,9.063582
0.725000,9.075000
0.425000,9.075000
0.367597,9.063582
0.318934,9.031066
0.286418,8.982403
0.275000,8.925000
Z" /> 
<path style="fill:#B4A09A; fill-opacity:0.900000; stroke:none;fill-rule:evenodd;"
d="M 6.075000,7.425000
6.086418,7.367597
6.118934,7.318934
6.167597,7.286418
6.225000,7.275000
6.525000,7.275000
6.582403,7.286418
6.631066,7.318934
6.663582,7.367597
6.675000,7.425000
6.675000,8.925000
6.663582,8.982403
6.631066,9.031066
6.582403,9.063582
6.525000,9.075000
6.225000,9.075000
6.167597,9.063582
6.118934,9.031066
6.086418,8.982403
6.075000,8.925000
Z" /> 
<path style="fill:#B4A09A; fill-opacity:0.900000; stroke:none;fill-rule:evenodd;"
d="M 0.275000,7.925000
0.286418,7.867597
0.318934,7.818934
0.367597,7.786418
0.425000,7.775000
0.725000,7.775000
0.782403,7.786418
0.831066,7.818934
0.863582,7.867597
0.875000,7.925000
0.875000,9.425000
0.863582,9.482403
0.831066,9.531066
0.782403,9.563582
0.725000,9.575000
0.425000,9.575000
0.367597,9.563582
0.318934,9.531066
0.286418,9.482403
0.275000,9.425000
Z" /> 
<path style="fill:#B4A09A; fill-opacity:0.900000; stroke:none;fill-rule:evenodd;"
d="M 6.075000,7.925000
6.086418,7.867597
6.118934,7.818934
6.167597,7.786418
6.225000,7.775000
6.525000,7.775000
6.582403,7.786418
6.631066,7.818934
6.663582,7.867597
6.675000,7.925000
6.675000,9.425000
6.663582,9.482403
6.631066,9.531066
6.582403,9.563582
6.525000,9.575000
6.225000,9.575000
6.167597,9.563582
6.118934,9.531066
6.086418,9.482403
6.075000,9.425000
Z" /> 
<path style="fill:#B4A09A; fill-opacity:0.900000; stroke:none;fill-rule:evenodd;"
d="M 1.725000,4.050000
1.733010,3.931875
1.778673,3.748259
1.862741,3.578753
1.981282,3.431282
2.128753,3.312741
2.298259,3.228673
2.481875,3.183010
2.600000,3.175000
4.350000,3.175000
4.468125,3.183010
4.651741,3.228673
4.821247,3.312741
4.968718,3.431282
5.087259,3.578753
5.171327,3.748259
5.216990,3.931875
5.225000,4.050000
5.225000,5.800000
5.216990,5.918125
5.171327,6.101741
5.087259,6.271247
4.968718,6.418718
4.821247,6.537259
4.651741,6.621327
4.468125,6.666990
4.350000,6.675000
2.600000,6.675000
2.481875,6.666990
2.298259,6.621327
2.128753,6.537259
1.981282,6.418718
1.862741,6.271247
1.778673,6.101741
1.733010,5.918125
1.725000,5.800000
Z" /> 
</g>
<g style="fill:none; 
stroke:#F2EDA1; stroke-width:0.120000; stroke-opacity:1; 
stroke-linecap:round; stroke-linejoin:round;">
<path d="M0.875000 2.325000
L6.075000 2.325000
" />
<path d="M6.075000 2.325000
L6.075000 7.525000
" />
<path d="M6.075000 7.525000
L0.875000 7.525000
" />
<path d="M0.875000 7.525000
L0.875000 2.325000
" />
</g>
<g style="fill:none; 
stroke:#FF26E2; stroke-width:0.050000; stroke-opacity:1; 
stroke-linecap:round; stroke-linejoin:round;">
<path d="M0.025000 0.025000
L6.925000 0.025000
" />
<path d="M6.925000 0.025000
L6.925000 9.825000
" />
<path d="M6.925000 9.825000
L0.025000 9.825000
" />
<path d="M0.025000 9.825000
L0.025000 0.025000
" />
</g>
<g style="fill:none; 
stroke:#AFAFAF; stroke-width:0.100000; stroke-opacity:1; 
stroke-linecap:round; stroke-linejoin:round;">
<circle cx="0.975000" cy="2.425000" r="0.500000" /> 
</g> 
</svg>
