<?xml version="1.0" standalone="no"?>
 <!DOCTYPE svg PUBLIC "-//W3C//DTD SVG 1.1//EN" 
 "http://www.w3.org/Graphics/SVG/1.1/DTD/svg11.dtd"> 
<svg
  xmlns:svg="http://www.w3.org/2000/svg"
  xmlns="http://www.w3.org/2000/svg"
  xmlns:xlink="http://www.w3.org/1999/xlink"
  xmlns:inkscape="http://www.inkscape.org/namespaces/inkscape"
  version="1.1"
  width="6.934200mm" height="6.146800mm" viewBox="0.000000 0.000000 6.934200 6.146800">
<title>SVG Image created as soic.svg date 2026-04-30T01:11:39 </title>
  <desc>Image generated by PCBNEW </desc>
<g style="fill:#000000; fill-opacity:1.000000;stroke:#000000; stroke-opacity:1.000000;
stroke-linecap:round; stroke-linejoin:round;"
 transform="translate(0 0) scale(1 1)">
<path style="fill:#C83434; fill-opacity:1.000000; stroke:none;fill-rule:evenodd;"
d="M 0.275000,0.425000
0.286418,0.367597
0.318934,0.318934
0.367597,0.286418
0.425000,0.275000
0.725000,0.275000
0.782403,0.286418
0.831066,0.318934
0.863582,0.367597
0.875000,0.425000
0.875000,1.925000
0.863582,1.982403
0.831066,2.031066
0.782403,2.063582
0.725000,2.075000
0.425000,2.075000
0.367597,2.063582
0.318934,2.031066
0.286418,1.982403
0.275000,1.925000
Z" /> 
<path style="fill:#C83434; fill-opacity:1.000000; stroke:none;fill-rule:evenodd;"
d="M 6.075000,0.425000
6.086418,0.367597
6.118934,0.318934
6.167597,0.286418
6.225000,0.275000
6.525000,0.275000
6.582403,0.286418
6.631066,0.318934
6.663582,0.367597
6.675000,0.425000
6.675000,1.925000
6.663582,1.982403
6.631066,2.031066
6.582403,2.063582
6.525000,2.075000
6.225000,2.075000
6.167597,2.063582
6.118934,2.031066
6.086418,1.982403
6.075000,1.925000
Z" /> 
<path style="fill:#C83434; fill-opacity:1.000000; stroke:none;fill-rule:evenodd;"
d="M 0.275000,1.695000
0.286418,1.637597
0.318934,1.588934
0.367597,1.556418
0.425000,1.545000
0.725000,1.545000
0.782403,1.556418
0.831066,1.588934
0.863582,1.637597
0.875000,1.695000
0.875000,3.195000
0.863582,3.252403
0.831066,3.301066
0.782403,3.333582
0.725000,3.345000
0.425000,3.345000
0.367597,3.333582
0.318934,3.301066
0.286418,3.252403
0.275000,3.195000
Z" /> 
<path style="fill:#C83434; fill-opacity:1.000000; stroke:none;fill-rule:evenodd;"
d="M 6.075000,1.695000
6.086418,1.637597
6.118934,1.588934
6.167597,1.556418
6.225000,1.545000
6.525000,1.545000
6.582403,1.556418
6.631066,1.588934
6.663582,1.637597
6.675000,1.695000
6.675000,3.195000
6.663582,3.252403
6.631066,3.301066
6.582403,3.333582
6.525000,3.345000
6.225000,3.345000
6.167597,3.333582
6.118934,3.301066
6.086418,3.252403
6.075000,3.195000
Z" /> 
<path style="fill:#C83434; fill-opacity:1.000000; stroke:none;fill-rule:evenodd;"
d="M 0.275000,2.965000
0.286418,2.907597
0.318934,2.858934
0.367597,2.826418
0.425000,2.815000
0.725000,2.815000
0.782403,2.826418
0.831066,2.858934
0.863582,2.907597
0.875000,2.965000
0.875000,4.465000
0.863582,4.522403
0.831066,4.571066
0.782403,4.603582
0.725000,4.615000
0.425000,4.615000
0.367597,4.603582
0.318934,4.571066
0.286418,4.522403
0.275000,4.465000
Z" /> 
<path style="fill:#C83434; fill-opacity:1.000000; stroke:none;fill-rule:evenodd;"
d="M 6.075000,2.965000
6.086418,2.907597
6.118934,2.858934
6.167597,2.826418
6.225000,2.815000
6.525000,2.815000
6.582403,2.826418
6.631066,2.858934
6.663582,2.907597
6.675000,2.965000
6.675000,4.465000
6.663582,4.522403
6.631066,4.571066
6.582403,4.603582
6.525000,4.615000
6.225000,4.615000
6.167597,4.603582
6.118934,4.571066
6.086418,4.522403
6.075000,4.465000
Z" /> 
<path style="fill:#C83434; fill-opacity:1.000000; stroke:none;fill-rule:evenodd;"
d="M 0.275000,4.235000
0.286418,4.177597
0.318934,4.128934
0.367597,4.096418
0.425000,4.085000
0.725000,4.085000
0.782403,4.096418
0.831066,4.128934
0.863582,4.177597
0.875000,4.235000
0.875000,5.735000
0.863582,5.792403
0.831066,5.841066
0.782403,5.873582
0.725000,5.885000
0.425000,5.885000
0.367597,5.873582
0.318934,5.841066
0.286418,5.792403
0.275000,5.735000
Z" /> 
<path style="fill:#C83434; fill-opacity:1.000000; stroke:none;fill-rule:evenodd;"
d="M 6.075000,4.235000
6.086418,4.177597
6.118934,4.128934
6.167597,4.096418
6.225000,4.085000
6.525000,4.085000
6.582403,4.096418
6.631066,4.128934
6.663582,4.177597
6.675000,4.235000
6.675000,5.735000
6.663582,5.792403
6.631066,5.841066
6.582403,5.873582
6.525000,5.885000
6.225000,5.885000
6.167597,5.873582
6.118934,5.841066
6.086418,5.792403
6.075000,5.735000
Z" /> 
<path style="fill:#D864FF; fill-opacity:0.400000; stroke:none;fill-rule:evenodd;"
d="M 0.275000,0.425000
0.286418,0.367597
0.318934,0.318934
0.367597,0.286418
0.425000,0.275000
0.725000,0.275000
0.782403,0.286418
0.831066,0.318934
0.863582,0.367597
0.875000,0.425000
0.875000,1.925000
0.863582,1.982403
0.831066,2.031066
0.782403,2.063582
0.725000,2.075000
0.425000,2.075000
0.367597,2.063582
0.318934,2.031066
0.286418,1.982403
0.275000,1.925000
Z" /> 
<path style="fill:#D864FF; fill-opacity:0.400000; stroke:none;fill-rule:evenodd;"
d="M 6.075000,0.425000
6.086418,0.367597
6.118934,0.318934
6.167597,0.286418
6.225000,0.275000
6.525000,0.275000
6.582403,0.286418
6.631066,0.318934
6.663582,0.367597
6.675000,0.425000
6.675000,1.925000
6.663582,1.982403
6.631066,2.031066
6.582403,2.063582
6.525000,2.075000
6.225000,2.075000
6.167597,2.063582
6.118934,2.031066
6.086418,1.982403
6.075000,1.925000
Z" /> 
<path style="fill:#D864FF; fill-opacity:0.400000; stroke:none;fill-rule:evenodd;"
d="M 0.275000,1.695000
0.286418,1.637597
0.318934,1.588934
0.367597,1.556418
0.425000,1.545000
0.725000,1.545000
0.782403,1.556418
0.831066,1.588934
0.863582,1.637597
0.875000,1.695000
0.875000,3.195000
0.863582,3.252403
0.831066,3.301066
0.782403,3.333582
0.725000,3.345000
0.425000,3.345000
0.367597,3.333582
0.318934,3.301066
0.286418,3.252403
0.275000,3.195000
Z" /> 
<path style="fill:#D864FF; fill-opacity:0.400000; stroke:none;fill-rule:evenodd;"
d="M 6.075000,1.695000
6.086418,1.637597
6.118934,1.588934
6.167597,1.556418
6.225000,1.545000
6.525000,1.545000
6.582403,1.556418
6.631066,1.588934
6.663582,1.637597
6.675000,1.695000
6.675000,3.195000
6.663582,3.252403
6.631066,3.301066
6.582403,3.333582
6.525000,3.345000
6.225000,3.345000
6.167597,3.333582
6.118934,3.301066
6.086418,3.252403
6.075000,3.195000
Z" /> 
<path style="fill:#D864FF; fill-opacity:0.400000; stroke:none;fill-rule:evenodd;"
d="M 0.275000,2.965000
0.286418,2.907597
0.318934,2.858934
0.367597,2.826418
0.425000,2.815000
0.725000,2.815000
0.782403,2.826418
0.831066,2.858934
0.863582,2.907597
0.875000,2.965000
0.875000,4.465000
0.863582,4.522403
0.831066,4.571066
0.782403,4.603582
0.725000,4.615000
0.425000,4.615000
0.367597,4.603582
0.318934,4.571066
0.286418,4.522403
0.275000,4.465000
Z" /> 
<path style="fill:#D864FF; fill-opacity:0.400000; stroke:none;fill-rule:evenodd;"
d="M 6.075000,2.965000
6.086418,2.907597
6.118934,2.858934
6.167597,2.826418
6.225000,2.815000
6.525000,2.815000
6.582403,2.826418
6.631066,2.858934
6.663582,2.907597
6.675000,2.965000
6.675000,4.465000
6.663582,4.522403
6.631066,4.571066
6.582403,4.603582
6.525000,4.615000
6.225000,4.615000
6.167597,4.603582
6.118934,4.571066
6.086418,4.522403
6.075000,4.465000
Z" /> 
<path style="fill:#D864FF; fill-opacity:0.400000; stroke:none;fill-rule:evenodd;"
d="M 0.275000,4.235000
0.286418,4.177597
0.318934,4.128934
0.367597,4.096418
0.425000,4.085000
0.725000,4.085000
0.782403,4.096418
0.831066,4.128934
0.863582,4.177597
0.875000,4.235000
0.875000,5.735000
0.863582,5.792403
0.831066,5.841066
0.782403,5.873582
0.725000,5.885000
0.425000,5.885000
0.367597,5.873582
0.318934,5.841066
0.286418,5.792403
0.275000,5.735000
Z" /> 
<path style="fill:#D864FF; fill-opacity:0.400000; stroke:none;fill-rule:evenodd;"
d="M 6.075000,4.235000
6.086418,4.177597
6.118934,4.128934
6.167597,4.096418
6.225000,4.085000
6.525000,4.085000
6.582403,4.096418
6.631066,4.128934
6.663582,4.177597
6.675000,4.235000
6.675000,5.735000
6.663582,5.792403
6.631066,5.841066
6.582403,5.873582
6.525000,5.885000
6.225000,5.885000
6.167597,5.873582
6.118934,5.841066
6.086418,5.792403
6.075000,5.735000
Z" /> 
<path style="fill:#B4A09A; fill-opacity:0.900000; stroke:none;fill-rule:evenodd;"
d="M 0.275000,0.425000
0.286418,0.367597
0.318934,0.318934
0.367597,0.286418
0.425000,0.275000
0.725000,0.275000
0.782403,0.286418
0.831066,0.318934
0.863582,0.367597
0.875000,0.425000
0.875000,1.925000
0.863582,1.982403
0.831066,2.031066
0.782403,2.063582
0.725000,2.075000
0.425000,2.075000
0.367597,2.063582
0.318934,2.031066
0.286418,1.982403
0.275000,1.925000
Z" /> 
<path style="fill:#B4A09A; fill-opacity:0.900000; stroke:none;fill-rule:evenodd;"
d="M 6.075000,0.425000
6.086418,0.367597
6.118934,0.318934
6.167597,0.286418
6.225000,0.275000
6.525000,0.275000
6.582403,0.286418
6.631066,0.318934
6.663582,0.367597
6.675000,0.425000
6.675000,1.925000
6.663582,1.982403
6.631066,2.031066
6.582403,2.063582
6.525000,2.075000
6.225000,2.075000
6.167597,2.063582
6.118934,2.031066
6.086418,1.982403
6.075000,1.925000
Z" /> 
<path style="fill:#B4A09A; fill-opacity:0.900000; stroke:none;fill-rule:evenodd;"
d="M 0.275000,1.695000
0.286418,1.637597
0.318934,1.588934
0.367597,1.556418
0.425000,1.545000
0.725000,1.545000
0.782403,1.556418
0.831066,1.588934
0.863582,1.637597
0.875000,1.695000
0.875000,3.195000
0.863582,3.252403
0.831066,3.301066
0.782403,3.333582
0.725000,3.345000
0.425000,3.345000
0.367597,3.333582
0.318934,3.301066
0.286418,3.252403
0.275000,3.195000
Z" /> 
<path style="fill:#B4A09A; fill-opacity:0.900000; stroke:none;fill-rule:evenodd;"
d="M 6.075000,1.695000
6.086418,1.637597
6.118934,1.588934
6.167597,1.556418
6.225000,1.545000
6.525000,1.545000
6.582403,1.556418
6.631066,1.588934
6.663582,1.637597
6.675000,1.695000
6.675000,3.195000
6.663582,3.252403
6.631066,3.301066
6.582403,3.333582
6.525000,3.345000
6.225000,3.345000
6.167597,3.333582
6.118934,3.301066
6.086418,3.252403
6.075000,3.195000
Z" /> 
<path style="fill:#B4A09A; fill-opacity:0.900000; stroke:none;fill-rule:evenodd;"
d="M 0.275000,2.965000
0.286418,2.907597
0.318934,2.858934
0.367597,2.826418
0.425000,2.815000
0.725000,2.815000
0.782403,2.826418
0.831066,2.858934
0.863582,2.907597
0.875000,2.965000
0.875000,4.465000
0.863582,4.522403
0.831066,4.571066
0.782403,4.603582
0.725000,4.615000
0.425000,4.615000
0.367597,4.603582
0.318934,4.571066
0.286418,4.522403
0.275000,4.465000
Z" /> 
<path style="fill:#B4A09A; fill-opacity:0.900000; stroke:none;fill-rule:evenodd;"
d="M 6.075000,2.965000
6.086418,2.907597
6.118934,2.858934
6.167597,2.826418
6.225000,2.815000
6.525000,2.815000
6.582403,2.826418
6.631066,2.858934
6.663582,2.907597
6.675000,2.965000
6.675000,4.465000
6.663582,4.522403
6.631066,4.571066
6.582403,4.603582
6.525000,4.615000
6.225000,4.615000
6.167597,4.603582
6.118934,4.571066
6.086418,4.522403
6.075000,4.465000
Z" /> 
<path style="fill:#B4A09A; fill-opacity:0.900000; stroke:none;fill-rule:evenodd;"
d="M 0.275000,4.235000
0.286418,4.177597
0.318934,4.128934
0.367597,4.096418
0.425000,4.085000
0.725000,4.085000
0.782403,4.096418
0.831066,4.128934
0.863582,4.177597
0.875000,4.235000
0.875000,5.735000
0.863582,5.792403
0.831066,5.841066
0.782403,5.873582
0.725000,5.885000
0.425000,5.885000
0.367597,5.873582
0.318934,5.841066
0.286418,5.792403
0.275000,5.735000
Z" /> 
<path style="fill:#B4A09A; fill-opacity:0.900000; stroke:none;fill-rule:evenodd;"
d="M 6.075000,4.235000
6.086418,4.177597
6.118934,4.128934
6.167597,4.096418
6.225000,4.085000
6.525000,4.085000
6.582403,4.096418
6.631066,4.128934
6.663582,4.177597
6.675000,4.235000
6.675000,5.735000
6.663582,5.792403
6.631066,5.841066
6.582403,5.873582
6.525000,5.885000
6.225000,5.885000
6.167597,5.873582
6.118934,5.841066
6.086418,5.792403
6.075000,5.735000
Z" /> 
</g>
<g style="fill:none; 
stroke:#F2EDA1; stroke-width:0.120000; stroke-opacity:1; 
stroke-linecap:round; stroke-linejoin:round;">
<path d="M0.875000 0.980000
L6.075000 0.980000
" />
<path d="M6.075000 0.980000
L6.075000 5.180000
" />
<path d="M6.075000 5.180000
L0.875000 5.180000
" />
<path d="M0.875000 5.180000
L0.875000 0.980000
" />
</g>
<g style="fill:none; 
stroke:#FF26E2; stroke-width:0.050000; stroke-opacity:1; 
stroke-linecap:round; stroke-linejoin:round;">
<path d="M0.025000 0.025000
L6.925000 0.025000
" />
<path d="M6.925000 0.025000
L6.925000 6.135000
" />
<path d="M6.925000 6.135000
L0.025000 6.135000
" />
<path d="M0.025000 6.135000
L0.025000 0.025000
" />
</g>
<g style="fill:none; 
stroke:#AFAFAF; stroke-width:0.100000; stroke-opacity:1; 
stroke-linecap:round; stroke-linejoin:round;">
<circle cx="0.975000" cy="1.080000" r="0.500000" /> 
</g> 
</svg>
